<svg xmlns="http://www.w3.org/2000/svg" xmlns:xlink="http://www.w3.org/1999/xlink" version="1.1" width="256" height="256" viewBox="0 0 256 256" xml:space="preserve">
<g style="stroke: none; stroke-width: 0; stroke-dasharray: none; stroke-linecap: butt; stroke-linejoin: miter; stroke-miterlimit: 10; fill: none; fill-rule: nonzero; opacity: 1;" transform="translate(1.4065934065934016 1.4065934065934016) scale(2.81 2.81)">
	<path d="M 62.014 71.458 c -2.072 -3.588 -0.842 -8.176 2.746 -10.247 c 1.247 -0.72 2.615 -1.033 3.956 -0.995 v -3.529 c 0 4.493 -15.163 8.135 -33.867 8.135 c -18.704 0 -33.867 -3.642 -33.867 -8.135 v 23.374 c 0 4.493 15.163 8.135 33.867 8.135 c 18.704 0 33.867 -3.642 33.867 -8.135 v -4.853 C 66.055 75.278 63.439 73.926 62.014 71.458 z" style="stroke: none; stroke-width: 1; stroke-dasharray: none; stroke-linecap: butt; stroke-linejoin: miter; stroke-miterlimit: 10; fill: rgb(0,163,248); fill-rule: nonzero; opacity: 1;" transform=" matrix(1 0 0 1 0 0) " stroke-linecap="round"/>
	<ellipse cx="34.846999999999994" cy="9.935" rx="33.867" ry="8.135" style="stroke: none; stroke-width: 1; stroke-dasharray: none; stroke-linecap: butt; stroke-linejoin: miter; stroke-miterlimit: 10; fill: rgb(138,209,238); fill-rule: nonzero; opacity: 1;" transform=" matrix(1 0 0 1 0 0) "/>
	<path d="M 68.716 9.939 c 0 4.493 -15.163 8.135 -33.867 8.135 S 0.982 14.432 0.982 9.939 v 23.374 c 0 4.493 15.163 8.135 33.867 8.135 s 33.867 -3.642 33.867 -8.135 V 9.939 z" style="stroke: none; stroke-width: 1; stroke-dasharray: none; stroke-linecap: butt; stroke-linejoin: miter; stroke-miterlimit: 10; fill: rgb(0,163,248); fill-rule: nonzero; opacity: 1;" transform=" matrix(1 0 0 1 0 0) " stroke-linecap="round"/>
	<path d="M 68.716 33.313 c 0 4.493 -15.163 8.135 -33.867 8.135 S 0.982 37.806 0.982 33.313 v 23.374 c 0 4.493 15.163 8.135 33.867 8.135 s 33.867 -3.642 33.867 -8.135 V 33.313 z" style="stroke: none; stroke-width: 1; stroke-dasharray: none; stroke-linecap: butt; stroke-linejoin: miter; stroke-miterlimit: 10; fill: rgb(138,209,238); fill-rule: nonzero; opacity: 1;" transform=" matrix(1 0 0 1 0 0) " stroke-linecap="round"/>
	<path d="M 34.849 19.074 c -16.903 0 -34.868 -3.201 -34.868 -9.135 s 17.965 -9.135 34.868 -9.135 c 16.903 0 34.868 3.201 34.868 9.135 S 51.753 19.074 34.849 19.074 z M 34.849 2.805 c -20.363 0 -32.867 4.155 -32.867 7.134 s 12.504 7.134 32.867 7.134 c 20.363 0 32.867 -4.155 32.867 -7.134 S 55.212 2.805 34.849 2.805 z" style="stroke: none; stroke-width: 1; stroke-dasharray: none; stroke-linecap: butt; stroke-linejoin: miter; stroke-miterlimit: 10; fill: rgb(0,0,0); fill-rule: nonzero; opacity: 1;" transform=" matrix(1 0 0 1 0 0) " stroke-linecap="round"/>
	<path d="M 34.849 42.448 c -16.903 0 -34.868 -3.201 -34.868 -9.135 V 9.939 c 0 -0.552 0.448 -1 1 -1 s 1 0.448 1 1 c 0 2.979 12.504 7.134 32.867 7.134 c 20.363 0 32.867 -4.155 32.867 -7.134 c 0 -0.552 0.447 -1 1 -1 s 1 0.448 1 1 v 23.374 C 69.717 39.247 51.753 42.448 34.849 42.448 z M 1.983 13.165 v 20.148 c 0 2.979 12.504 7.134 32.867 7.134 c 20.363 0 32.867 -4.155 32.867 -7.134 V 13.165 c -5.137 3.859 -19.342 5.909 -32.867 5.909 C 21.324 19.074 7.12 17.024 1.983 13.165 z" style="stroke: none; stroke-width: 1; stroke-dasharray: none; stroke-linecap: butt; stroke-linejoin: miter; stroke-miterlimit: 10; fill: rgb(0,0,0); fill-rule: nonzero; opacity: 1;" transform=" matrix(1 0 0 1 0 0) " stroke-linecap="round"/>
	<path d="M 35.748 30.761 H 33.95 c -0.552 0 -1 -0.448 -1 -1 c 0 -0.552 0.448 -1 1 -1 h 1.798 c 0.552 0 1 0.448 1 1 C 36.749 30.313 36.301 30.761 35.748 30.761 z" style="stroke: none; stroke-width: 1; stroke-dasharray: none; stroke-linecap: butt; stroke-linejoin: miter; stroke-miterlimit: 10; fill: rgb(0,0,0); fill-rule: nonzero; opacity: 1;" transform=" matrix(1 0 0 1 0 0) " stroke-linecap="round"/>
	<path d="M 34.849 65.822 c -16.903 0 -34.868 -3.201 -34.868 -9.135 V 33.313 c 0 -0.552 0.448 -1 1 -1 s 1 0.448 1 1 c 0 2.979 12.504 7.134 32.867 7.134 c 20.363 0 32.867 -4.155 32.867 -7.134 c 0 -0.552 0.447 -1 1 -1 s 1 0.448 1 1 v 23.374 C 69.717 62.62 51.753 65.822 34.849 65.822 z M 1.983 36.54 v 20.148 c 0 2.979 12.504 7.134 32.867 7.134 c 20.363 0 32.867 -4.155 32.867 -7.134 V 36.54 c -5.137 3.859 -19.342 5.909 -32.867 5.909 C 21.324 42.448 7.12 40.399 1.983 36.54 z" style="stroke: none; stroke-width: 1; stroke-dasharray: none; stroke-linecap: butt; stroke-linejoin: miter; stroke-miterlimit: 10; fill: rgb(0,0,0); fill-rule: nonzero; opacity: 1;" transform=" matrix(1 0 0 1 0 0) " stroke-linecap="round"/>
	<path d="M 35.748 54.135 H 33.95 c -0.552 0 -1 -0.447 -1 -1 s 0.448 -1 1 -1 h 1.798 c 0.552 0 1 0.447 1 1 S 36.301 54.135 35.748 54.135 z" style="stroke: none; stroke-width: 1; stroke-dasharray: none; stroke-linecap: butt; stroke-linejoin: miter; stroke-miterlimit: 10; fill: rgb(0,0,0); fill-rule: nonzero; opacity: 1;" transform=" matrix(1 0 0 1 0 0) " stroke-linecap="round"/>
	<path d="M 35.748 77.509 H 33.95 c -0.552 0 -1 -0.447 -1 -1 s 0.448 -1 1 -1 h 1.798 c 0.552 0 1 0.447 1 1 S 36.301 77.509 35.748 77.509 z" style="stroke: none; stroke-width: 1; stroke-dasharray: none; stroke-linecap: butt; stroke-linejoin: miter; stroke-miterlimit: 10; fill: rgb(0,0,0); fill-rule: nonzero; opacity: 1;" transform=" matrix(1 0 0 1 0 0) " stroke-linecap="round"/>
	<path d="M 34.849 89.195 c -16.903 0 -34.868 -3.201 -34.868 -9.135 V 56.687 c 0 -0.553 0.448 -1 1 -1 s 1 0.447 1 1 c 0 2.979 12.504 7.134 32.867 7.134 c 20.363 0 32.867 -4.155 32.867 -7.134 c 0 -0.553 0.447 -1 1 -1 s 1 0.447 1 1 v 3.529 c 0 0.271 -0.109 0.529 -0.303 0.717 c -0.194 0.189 -0.455 0.286 -0.726 0.283 c -1.201 -0.034 -2.393 0.263 -3.428 0.861 c -1.504 0.868 -2.58 2.269 -3.03 3.948 c -0.449 1.677 -0.219 3.429 0.65 4.933 l 0 0 c 1.194 2.068 3.47 3.332 5.81 3.249 c 0.273 -0.001 0.531 0.096 0.724 0.283 c 0.193 0.189 0.303 0.447 0.303 0.717 v 4.854 C 69.717 85.994 51.753 89.195 34.849 89.195 z M 1.983 59.913 v 20.148 c 0 2.979 12.504 7.134 32.867 7.134 c 20.363 0 32.867 -4.155 32.867 -7.134 v -3.888 c -2.725 -0.256 -5.181 -1.809 -6.569 -4.215 l 0 0 c -1.135 -1.967 -1.437 -4.258 -0.849 -6.452 c 0.278 -1.037 0.739 -1.994 1.356 -2.834 c -6.806 2.069 -16.984 3.15 -26.805 3.15 C 21.324 65.822 7.12 63.772 1.983 59.913 z" style="stroke: none; stroke-width: 1; stroke-dasharray: none; stroke-linecap: butt; stroke-linejoin: miter; stroke-miterlimit: 10; fill: rgb(0,0,0); fill-rule: nonzero; opacity: 1;" transform=" matrix(1 0 0 1 0 0) " stroke-linecap="round"/>
	<path d="M 85.769 62.039 c -1.222 0 -2.317 -0.703 -2.878 -1.787 c -0.112 -0.217 -0.229 -0.431 -0.352 -0.644 s -0.25 -0.422 -0.382 -0.627 c -0.659 -1.028 -0.72 -2.328 -0.109 -3.385 c 0.887 -1.536 0.36 -3.501 -1.175 -4.387 l -4.254 -2.456 c -1.536 -0.887 -3.501 -0.36 -4.387 1.175 l -0.001 0.001 c -0.601 1.042 -1.735 1.656 -2.937 1.597 c -0.523 -0.025 -1.047 -0.026 -1.571 0 c -1.2 0.058 -2.331 -0.558 -2.931 -1.598 l -0.001 -0.001 c -0.887 -1.536 -2.852 -2.063 -4.387 -1.175 l -4.254 2.456 c -1.536 0.887 -2.063 2.852 -1.175 4.387 l 0.001 0.001 c 0.601 1.04 0.569 2.328 -0.082 3.337 c -0.284 0.442 -0.546 0.896 -0.785 1.361 c -0.55 1.07 -1.649 1.745 -2.852 1.745 h -0.001 c -1.774 0 -3.212 1.438 -3.212 3.212 v 4.913 c 0 1.774 1.438 3.212 3.212 3.212 l 0 0 c 1.222 0 2.317 0.703 2.878 1.787 c 0.112 0.216 0.229 0.431 0.352 0.644 c 0.123 0.213 0.25 0.422 0.382 0.627 c 0.659 1.028 0.72 2.328 0.109 3.385 c -0.887 1.536 -0.36 3.501 1.175 4.387 l 4.254 2.456 c 1.536 0.887 3.501 0.36 4.387 -1.175 l 0.001 -0.001 c 0.601 -1.042 1.735 -1.656 2.937 -1.597 c 0.523 0.025 1.047 0.026 1.571 0 c 1.2 -0.058 2.331 0.558 2.931 1.598 l 0.001 0.001 c 0.887 1.536 2.851 2.063 4.387 1.175 l 4.254 -2.456 c 1.536 -0.887 2.063 -2.851 1.175 -4.387 l -0.001 -0.001 c -0.601 -1.04 -0.569 -2.328 0.082 -3.337 c 0.284 -0.442 0.546 -0.896 0.785 -1.361 c 0.55 -1.07 1.649 -1.745 2.852 -1.745 h 0.001 c 1.774 0 3.212 -1.438 3.212 -3.212 v -4.913 C 88.981 63.477 87.543 62.039 85.769 62.039 z M 72.261 74.204 c -3.588 2.072 -8.176 0.842 -10.247 -2.746 c -2.072 -3.588 -0.842 -8.176 2.746 -10.247 c 3.588 -2.071 8.176 -0.842 10.247 2.746 C 77.079 67.545 75.85 72.133 72.261 74.204 z" style="stroke: none; stroke-width: 1; stroke-dasharray: none; stroke-linecap: butt; stroke-linejoin: miter; stroke-miterlimit: 10; fill: rgb(244,150,22); fill-rule: nonzero; opacity: 1;" transform=" matrix(1 0 0 1 0 0) " stroke-linecap="round"/>
	<path d="M 62.003 88.096 c -0.73 0 -1.45 -0.191 -2.098 -0.566 l -4.255 -2.457 c -0.974 -0.562 -1.672 -1.47 -1.963 -2.558 c -0.291 -1.086 -0.142 -2.222 0.421 -3.197 c 0.415 -0.718 0.383 -1.616 -0.084 -2.346 c -0.14 -0.217 -0.275 -0.44 -0.406 -0.666 c -0.131 -0.227 -0.256 -0.455 -0.374 -0.686 c -0.398 -0.767 -1.16 -1.245 -1.989 -1.245 c -2.323 0 -4.213 -1.889 -4.213 -4.213 v -4.913 c 0 -2.322 1.889 -4.212 4.213 -4.212 c 0.829 0 1.582 -0.46 1.963 -1.202 c 0.251 -0.489 0.531 -0.975 0.833 -1.445 c 0.451 -0.7 0.473 -1.579 0.058 -2.297 c -0.563 -0.974 -0.712 -2.109 -0.422 -3.196 c 0.291 -1.087 0.989 -1.996 1.963 -2.559 l 4.255 -2.457 c 2.012 -1.162 4.593 -0.47 5.754 1.542 c 0.415 0.719 1.189 1.141 2.017 1.1 c 0.544 -0.027 1.105 -0.027 1.669 0 c 0.837 0.047 1.606 -0.379 2.02 -1.098 c 1.164 -2.014 3.745 -2.705 5.755 -1.544 l 4.255 2.457 c 0.974 0.563 1.671 1.47 1.962 2.557 c 0.292 1.087 0.143 2.223 -0.42 3.197 C 82.5 56.813 82.533 57.712 83 58.442 c 0.139 0.214 0.275 0.438 0.406 0.665 c 0.131 0.227 0.256 0.455 0.374 0.686 c 0.398 0.768 1.161 1.246 1.989 1.246 c 2.323 0 4.213 1.889 4.213 4.213 v 4.912 c 0 2.323 -1.889 4.213 -4.213 4.213 c -0.83 0 -1.583 0.46 -1.964 1.202 c -0.251 0.489 -0.531 0.976 -0.832 1.445 c -0.451 0.7 -0.473 1.579 -0.058 2.297 c 0.563 0.974 0.712 2.11 0.421 3.197 c -0.291 1.087 -0.989 1.996 -1.963 2.558 l -4.254 2.457 c -2.013 1.162 -4.593 0.468 -5.754 -1.543 c -0.415 -0.719 -1.203 -1.152 -2.016 -1.099 c -0.556 0.027 -1.118 0.027 -1.67 0 c -0.805 -0.038 -1.607 0.38 -2.021 1.098 c -0.563 0.975 -1.471 1.672 -2.558 1.964 C 62.738 88.049 62.368 88.096 62.003 88.096 z M 62.006 49.322 c -0.375 0 -0.754 0.095 -1.102 0.296 l -4.255 2.457 c -0.511 0.295 -0.877 0.772 -1.03 1.342 c -0.153 0.571 -0.075 1.166 0.221 1.677 c 0.792 1.371 0.751 3.05 -0.106 4.381 c -0.267 0.414 -0.515 0.845 -0.737 1.277 c -0.726 1.412 -2.159 2.288 -3.742 2.288 c -1.22 0 -2.213 0.992 -2.213 2.211 v 4.913 c 0 1.219 0.993 2.212 2.212 2.212 c 1.58 0 3.023 0.892 3.766 2.327 c 0.106 0.203 0.215 0.404 0.33 0.604 c 0.114 0.199 0.233 0.395 0.357 0.586 c 0.874 1.364 0.924 3.06 0.133 4.428 c -0.295 0.511 -0.373 1.107 -0.22 1.677 c 0.152 0.571 0.518 1.047 1.03 1.342 l 4.255 2.457 c 1.054 0.609 2.411 0.246 3.021 -0.81 c 0.791 -1.372 2.269 -2.169 3.852 -2.098 c 0.488 0.023 0.984 0.023 1.474 0 c 1.591 -0.062 3.054 0.727 3.846 2.098 c 0.61 1.057 1.967 1.418 3.022 0.81 l 4.254 -2.457 c 0.512 -0.295 0.878 -0.772 1.031 -1.342 c 0.153 -0.571 0.074 -1.166 -0.222 -1.678 c -0.791 -1.371 -0.75 -3.049 0.107 -4.38 c 0.266 -0.413 0.513 -0.843 0.736 -1.276 c 0.725 -1.413 2.159 -2.289 3.742 -2.289 c 1.22 0 2.214 -0.993 2.214 -2.212 v -4.912 c 0 -1.219 -0.993 -2.212 -2.212 -2.212 c -1.58 0 -3.023 -0.892 -3.766 -2.328 c -0.106 -0.203 -0.215 -0.404 -0.33 -0.604 c -0.114 -0.198 -0.233 -0.393 -0.356 -0.583 c -0.874 -1.366 -0.925 -3.062 -0.135 -4.43 c 0.295 -0.511 0.374 -1.107 0.221 -1.677 s -0.519 -1.047 -1.03 -1.342 l -4.255 -2.457 c -1.057 -0.608 -2.41 -0.247 -3.021 0.809 c -0.792 1.373 -2.273 2.167 -3.852 2.098 c -0.498 -0.025 -0.993 -0.025 -1.473 0 c -1.575 0.059 -3.058 -0.728 -3.847 -2.098 C 63.516 49.719 62.771 49.322 62.006 49.322 z M 68.524 76.214 c -0.739 0 -1.482 -0.098 -2.215 -0.294 c -2.193 -0.587 -4.027 -1.995 -5.162 -3.962 c -2.344 -4.06 -0.948 -9.27 3.113 -11.614 c 4.061 -2.343 9.271 -0.947 11.614 3.113 c 1.135 1.967 1.437 4.258 0.849 6.452 c -0.587 2.193 -1.995 4.027 -3.962 5.162 l 0 0 C 71.451 75.827 69.997 76.214 68.524 76.214 z M 68.501 61.204 c -1.127 0 -2.239 0.295 -3.241 0.873 c -1.505 0.868 -2.58 2.269 -3.03 3.947 c -0.449 1.677 -0.219 3.429 0.65 4.934 c 0.868 1.505 2.269 2.58 3.948 3.03 c 1.675 0.449 3.429 0.219 4.933 -0.65 l 0 0 c 1.505 -0.868 2.58 -2.269 3.03 -3.948 c 0.449 -1.677 0.219 -3.429 -0.65 -4.933 c -0.868 -1.505 -2.269 -2.58 -3.947 -3.03 C 69.634 61.278 69.065 61.204 68.501 61.204 z" style="stroke: none; stroke-width: 1; stroke-dasharray: none; stroke-linecap: butt; stroke-linejoin: miter; stroke-miterlimit: 10; fill: rgb(0,0,0); fill-rule: nonzero; opacity: 1;" transform=" matrix(1 0 0 1 0 0) " stroke-linecap="round"/>
</g>
</svg>