<svg xmlns="http://www.w3.org/2000/svg" xmlns:xlink="http://www.w3.org/1999/xlink" version="1.1" width="256" height="256" viewBox="0 0 256 256" xml:space="preserve">
<g style="stroke: none; stroke-width: 0; stroke-dasharray: none; stroke-linecap: butt; stroke-linejoin: miter; stroke-miterlimit: 10; fill: none; fill-rule: nonzero; opacity: 1;" transform="translate(0 -2.842170943040401e-14) scale(2.81 2.81)">
	<circle cx="45" cy="45" r="45" style="stroke: none; stroke-width: 1; stroke-dasharray: none; stroke-linecap: butt; stroke-linejoin: miter; stroke-miterlimit: 10; fill: rgb(0,0,0); fill-rule: nonzero; opacity: 1;" transform="  matrix(1 0 0 1 0 0) "/>
</g>
<g style="stroke: none; stroke-width: 0; stroke-dasharray: none; stroke-linecap: butt; stroke-linejoin: miter; stroke-miterlimit: 10; fill: none; fill-rule: nonzero; opacity: 1;" transform="translate(46.17984832069338 46.17984832069335) scale(1.82 1.82)">
	<path d="M 29.934 18.786 h 50.38 c 4.797 0 8.686 3.889 8.686 8.686 v 0 c 0 4.797 -3.889 8.686 -8.686 8.686 h -50.38" style="stroke: none; stroke-width: 1; stroke-dasharray: none; stroke-linecap: butt; stroke-linejoin: miter; stroke-miterlimit: 10; fill: rgb(255,255,255); fill-rule: nonzero; opacity: 1;" transform=" matrix(1 0 0 1 0 0) " stroke-linecap="round"/>
	<path d="M 60.066 53.843 H 9.686 C 4.889 53.843 1 57.731 1 62.528 v 0 c 0 4.797 3.889 8.686 8.686 8.686 h 50.38" style="stroke: none; stroke-width: 1; stroke-dasharray: none; stroke-linecap: butt; stroke-linejoin: miter; stroke-miterlimit: 10; fill: rgb(255,255,255); fill-rule: nonzero; opacity: 1;" transform=" matrix(1 0 0 1 0 0) " stroke-linecap="round"/>
	<circle cx="16.771" cy="27.471" r="15.771" style="stroke: none; stroke-width: 1; stroke-dasharray: none; stroke-linecap: butt; stroke-linejoin: miter; stroke-miterlimit: 10; fill: rgb(62,140,214); fill-rule: nonzero; opacity: 1;" transform="  matrix(1 0 0 1 0 0) "/>
	<circle cx="73.231" cy="62.531" r="15.771" style="stroke: none; stroke-width: 1; stroke-dasharray: none; stroke-linecap: butt; stroke-linejoin: miter; stroke-miterlimit: 10; fill: rgb(62,140,214); fill-rule: nonzero; opacity: 1;" transform="  matrix(1 0 0 1 0 0) "/>
	<path d="M 16.771 44.243 C 7.523 44.243 0 36.72 0 27.472 S 7.523 10.7 16.771 10.7 s 16.771 7.523 16.771 16.771 S 26.02 44.243 16.771 44.243 z M 16.771 12.7 C 8.626 12.7 2 19.327 2 27.472 s 6.626 14.771 14.771 14.771 s 14.771 -6.626 14.771 -14.771 S 24.917 12.7 16.771 12.7 z" style="stroke: none; stroke-width: 1; stroke-dasharray: none; stroke-linecap: butt; stroke-linejoin: miter; stroke-miterlimit: 10; fill: rgb(0,0,0); fill-rule: nonzero; opacity: 1;" transform=" matrix(1 0 0 1 0 0) " stroke-linecap="round"/>
	<path d="M 80.314 37.157 h -50.38 c -0.552 0 -1 -0.448 -1 -1 s 0.448 -1 1 -1 h 50.38 c 4.238 0 7.686 -3.448 7.686 -7.686 c 0 -4.238 -3.447 -7.686 -7.686 -7.686 h -50.38 c -0.552 0 -1 -0.448 -1 -1 s 0.448 -1 1 -1 h 50.38 c 5.341 0 9.686 4.345 9.686 9.686 S 85.655 37.157 80.314 37.157 z" style="stroke: none; stroke-width: 1; stroke-dasharray: none; stroke-linecap: butt; stroke-linejoin: miter; stroke-miterlimit: 10; fill: rgb(0,0,0); fill-rule: nonzero; opacity: 1;" transform=" matrix(1 0 0 1 0 0) " stroke-linecap="round"/>
	<path d="M 73.229 79.3 c -9.248 0 -16.771 -7.523 -16.771 -16.771 s 7.523 -16.771 16.771 -16.771 S 90 53.28 90 62.528 S 82.477 79.3 73.229 79.3 z M 73.229 47.757 c -8.146 0 -14.771 6.626 -14.771 14.771 S 65.083 77.3 73.229 77.3 S 88 70.674 88 62.528 S 81.374 47.757 73.229 47.757 z" style="stroke: none; stroke-width: 1; stroke-dasharray: none; stroke-linecap: butt; stroke-linejoin: miter; stroke-miterlimit: 10; fill: rgb(0,0,0); fill-rule: nonzero; opacity: 1;" transform=" matrix(1 0 0 1 0 0) " stroke-linecap="round"/>
	<path d="M 60.065 72.214 H 9.686 C 4.345 72.214 0 67.869 0 62.528 s 4.345 -9.686 9.686 -9.686 h 50.38 c 0.553 0 1 0.447 1 1 s -0.447 1 -1 1 H 9.686 C 5.448 54.843 2 58.29 2 62.528 s 3.448 7.686 7.686 7.686 h 50.38 c 0.553 0 1 0.447 1 1 S 60.618 72.214 60.065 72.214 z" style="stroke: none; stroke-width: 1; stroke-dasharray: none; stroke-linecap: butt; stroke-linejoin: miter; stroke-miterlimit: 10; fill: rgb(0,0,0); fill-rule: nonzero; opacity: 1;" transform=" matrix(1 0 0 1 0 0) " stroke-linecap="round"/>
</g>
</svg>