<svg xmlns="http://www.w3.org/2000/svg" xmlns:xlink="http://www.w3.org/1999/xlink" version="1.1" width="256" height="256" viewBox="0 0 256 256" xml:space="preserve">
<g style="stroke: none; stroke-width: 0; stroke-dasharray: none; stroke-linecap: butt; stroke-linejoin: miter; stroke-miterlimit: 10; fill: rgb(255,255,255); fill-rule: nonzero; opacity: 1;" transform="translate(0 -2.842170943040401e-14) scale(2.81 2.81)">
	<circle cx="45" cy="45" r="45" style="stroke: none; stroke-width: 1; stroke-dasharray: none; stroke-linecap: butt; stroke-linejoin: miter; stroke-miterlimit: 10; fill: rgb(255,255,255); fill-rule: nonzero; opacity: 1;" transform="  matrix(1 0 0 1 0 0) "/>
</g>
<g style="stroke: none; stroke-width: 0; stroke-dasharray: none; stroke-linecap: butt; stroke-linejoin: miter; stroke-miterlimit: 10; fill: none; fill-rule: nonzero; opacity: 1;" transform="translate(46.17984832069338 46.17984832069335) scale(1.82 1.82)">
	<path d="M 69.485 32.157 h -0.595 c -3.373 0 -6.133 2.76 -6.133 6.133 v -6.133 c 0 -3.373 -2.76 -6.133 -6.133 -6.133 H 56.03 c -3.289 0 -5.987 2.626 -6.12 5.883 c -2.901 19.735 -3.193 38.837 0 57.092 h 15.456 c 2.251 0 4.076 -1.825 4.076 -4.076 v -6.781 l 0.001 0.001 c 3.846 -4.498 6.175 -10.326 6.175 -16.672 v -1.848 v -6.896 V 38.29 C 75.618 34.917 72.859 32.157 69.485 32.157 z" style="stroke: none; stroke-width: 1; stroke-dasharray: none; stroke-linecap: butt; stroke-linejoin: miter; stroke-miterlimit: 10; fill: rgb(246,195,176); fill-rule: nonzero; opacity: 1;" transform=" matrix(1 0 0 1 0 0) " stroke-linecap="round"/>
	<path d="M 49.897 32.157 v -4.352 c 0 -3.373 -2.76 -6.133 -6.133 -6.133 H 43.17 c -3.373 0 -6.133 2.76 -6.133 6.133 V 7.133 C 37.037 3.76 34.277 1 30.904 1 h -0.595 c -3.373 0 -6.133 2.76 -6.133 6.133 v 33.616 l -5.052 3.835 c -5.392 4.093 -6.331 11.835 -2.073 17.098 l 13.076 16.164 v 7.078 c 0 2.251 1.825 4.076 4.076 4.076 h 15.694 V 32.157 z" style="stroke: none; stroke-width: 1; stroke-dasharray: none; stroke-linecap: butt; stroke-linejoin: miter; stroke-miterlimit: 10; fill: rgb(255,212,196); fill-rule: nonzero; opacity: 1;" transform=" matrix(1 0 0 1 0 0) " stroke-linecap="round"/>
	<path d="M 65.366 90 H 34.203 c -2.799 0 -5.076 -2.277 -5.076 -5.076 v -6.725 L 16.274 62.311 c -2.231 -2.758 -3.224 -6.215 -2.797 -9.736 c 0.427 -3.521 2.218 -6.642 5.043 -8.787 l 4.657 -3.535 V 7.133 C 23.177 3.2 26.376 0 30.31 0 h 0.595 c 3.933 0 7.133 3.2 7.133 7.133 v 15.724 c 1.298 -1.346 3.12 -2.185 5.133 -2.185 h 0.595 c 3.74 0 6.817 2.894 7.11 6.561 c 1.3 -1.36 3.13 -2.208 5.155 -2.208 h 0.595 c 3.933 0 7.133 3.2 7.133 7.133 v 1.185 c 1.298 -1.346 3.119 -2.185 5.133 -2.185 h 0.595 c 3.933 0 7.133 3.2 7.133 7.133 v 23.182 c 0 6.209 -2.19 12.244 -6.175 17.038 l -0.001 6.414 C 70.442 87.723 68.165 90 65.366 90 z M 23.177 42.764 l -3.448 2.617 c -2.391 1.815 -3.906 4.456 -4.267 7.435 c -0.361 2.979 0.479 5.904 2.367 8.237 l 13.076 16.164 c 0.144 0.178 0.223 0.4 0.223 0.629 v 7.078 c 0 1.696 1.38 3.076 3.076 3.076 h 31.163 c 1.696 0 3.076 -1.38 3.076 -3.076 v -6.78 c 0 -0.238 0.085 -0.469 0.24 -0.65 c 3.827 -4.475 5.936 -10.164 5.936 -16.021 V 38.29 c 0 -2.83 -2.303 -5.133 -5.133 -5.133 h -0.595 c -2.83 0 -5.133 2.303 -5.133 5.133 c 0 0.552 -0.447 1 -1 1 s -1 -0.448 -1 -1 v -6.133 c 0 -2.83 -2.303 -5.133 -5.133 -5.133 H 56.03 c -2.83 0 -5.133 2.303 -5.133 5.133 c 0 0.552 -0.447 1 -1 1 s -1 -0.448 -1 -1 v -4.352 c 0 -2.83 -2.303 -5.133 -5.133 -5.133 H 43.17 c -2.83 0 -5.133 2.303 -5.133 5.133 c 0 0.552 -0.448 1 -1 1 s -1 -0.448 -1 -1 V 7.133 c 0 -2.83 -2.303 -5.133 -5.133 -5.133 H 30.31 c -2.83 0 -5.133 2.303 -5.133 5.133 v 33.605 c 0 0.006 0 0.013 0 0.02 v 12.668 c 0 0.553 -0.448 1 -1 1 s -1 -0.447 -1 -1 V 42.764 z" style="stroke: none; stroke-width: 1; stroke-dasharray: none; stroke-linecap: butt; stroke-linejoin: miter; stroke-miterlimit: 10; fill: rgb(0,0,0); fill-rule: nonzero; opacity: 1;" transform=" matrix(1 0 0 1 0 0) " stroke-linecap="round"/>
	<path d="M 37.05 46 c -0.552 0 -1 -0.447 -1 -0.999 l -0.013 -17.195 c 0 -0.553 0.447 -1 0.999 -1.001 c 0 0 0.001 0 0.001 0 c 0.552 0 1 0.447 1 0.999 l 0.013 17.195 C 38.05 45.552 37.603 46 37.05 46 C 37.05 46 37.05 46 37.05 46 z" style="stroke: none; stroke-width: 1; stroke-dasharray: none; stroke-linecap: butt; stroke-linejoin: miter; stroke-miterlimit: 10; fill: rgb(0,0,0); fill-rule: nonzero; opacity: 1;" transform=" matrix(1 0 0 1 0 0) " stroke-linecap="round"/>
	<path d="M 49.91 46 c -0.552 0 -0.999 -0.447 -1 -0.999 l -0.013 -12.843 c -0.001 -0.552 0.446 -1 0.999 -1.001 h 0.001 c 0.552 0 0.999 0.447 1 0.999 l 0.013 12.843 C 50.911 45.551 50.464 46 49.91 46 L 49.91 46 z" style="stroke: none; stroke-width: 1; stroke-dasharray: none; stroke-linecap: butt; stroke-linejoin: miter; stroke-miterlimit: 10; fill: rgb(0,0,0); fill-rule: nonzero; opacity: 1;" transform=" matrix(1 0 0 1 0 0) " stroke-linecap="round"/>
	<path d="M 62.745 46 c -0.552 0 -0.999 -0.447 -1 -0.998 l -0.013 -7.144 c -0.001 -0.552 0.446 -1.001 0.998 -1.002 c 0.001 0 0.001 0 0.002 0 c 0.552 0 0.999 0.446 1 0.998 l 0.013 7.144 c 0.001 0.552 -0.446 1.001 -0.998 1.002 C 62.746 46 62.746 46 62.745 46 z" style="stroke: none; stroke-width: 1; stroke-dasharray: none; stroke-linecap: butt; stroke-linejoin: miter; stroke-miterlimit: 10; fill: rgb(0,0,0); fill-rule: nonzero; opacity: 1;" transform=" matrix(1 0 0 1 0 0) " stroke-linecap="round"/>
</g>
</svg>