<svg xmlns="http://www.w3.org/2000/svg" xmlns:xlink="http://www.w3.org/1999/xlink" version="1.1" width="256" height="256" viewBox="0 0 256 256" xml:space="preserve">
<g style="stroke: none; stroke-width: 0; stroke-dasharray: none; stroke-linecap: butt; stroke-linejoin: miter; stroke-miterlimit: 10; fill: none; fill-rule: nonzero; opacity: 1;" transform="translate(45.02412451361867 45.024124513618645) scale(1.83 1.83)">
	<path d="M 45 76.344 C 56.266 71.17 67.533 62.953 67.533 40.89 V 24.728 C 60.022 24.36 52.511 20.669 45 13.656 c -7.511 7.013 -15.022 10.704 -22.533 11.072 V 40.89 C 22.467 62.953 33.734 71.17 45 76.344 L 45 76.344 z" style="stroke: none; stroke-width: 1; stroke-dasharray: none; stroke-linecap: butt; stroke-linejoin: miter; stroke-miterlimit: 10; fill: rgb(0,0,0); fill-rule: nonzero; opacity: 1;" transform=" matrix(1 0 0 1 0 0) " stroke-linecap="round"/>
	<path d="M 45 58.417 L 45 58.417 c -4.501 0 -8.149 -3.648 -8.149 -8.149 v -6.009 h 16.298 v 6.009 C 53.149 54.769 49.501 58.417 45 58.417 z" style="stroke: none; stroke-width: 1; stroke-dasharray: none; stroke-linecap: butt; stroke-linejoin: miter; stroke-miterlimit: 10; fill: rgb(255,0,0); fill-rule: nonzero; opacity: 1;" transform=" matrix(1 0 0 1 0 0) " stroke-linecap="round"/>
	<circle cx="5.338" cy="72.008" r="4.338" style="stroke: none; stroke-width: 1; stroke-dasharray: none; stroke-linecap: butt; stroke-linejoin: miter; stroke-miterlimit: 10; fill: rgb(0,0,0); fill-rule: nonzero; opacity: 1;" transform="  matrix(1 0 0 1 0 0) "/>
	<circle cx="84.65799999999999" cy="72.008" r="4.338" style="stroke: none; stroke-width: 1; stroke-dasharray: none; stroke-linecap: butt; stroke-linejoin: miter; stroke-miterlimit: 10; fill: rgb(0,0,0); fill-rule: nonzero; opacity: 1;" transform="  matrix(1 0 0 1 0 0) "/>
	<circle cx="5.338" cy="20.978" r="4.338" style="stroke: none; stroke-width: 1; stroke-dasharray: none; stroke-linecap: butt; stroke-linejoin: miter; stroke-miterlimit: 10; fill: rgb(0,0,0); fill-rule: nonzero; opacity: 1;" transform="  matrix(1 0 0 1 0 0) "/>
	<circle cx="84.65799999999999" cy="20.978" r="4.338" style="stroke: none; stroke-width: 1; stroke-dasharray: none; stroke-linecap: butt; stroke-linejoin: miter; stroke-miterlimit: 10; fill: rgb(0,0,0); fill-rule: nonzero; opacity: 1;" transform="  matrix(1 0 0 1 0 0) "/>
	<circle cx="84.65799999999999" cy="46.488" r="4.338" style="stroke: none; stroke-width: 1; stroke-dasharray: none; stroke-linecap: butt; stroke-linejoin: miter; stroke-miterlimit: 10; fill: rgb(0,0,0); fill-rule: nonzero; opacity: 1;" transform="  matrix(1 0 0 1 0 0) "/>
	<circle cx="5.338" cy="46.488" r="4.338" style="stroke: none; stroke-width: 1; stroke-dasharray: none; stroke-linecap: butt; stroke-linejoin: miter; stroke-miterlimit: 10; fill: rgb(0,0,0); fill-rule: nonzero; opacity: 1;" transform="  matrix(1 0 0 1 0 0) "/>
	<path d="M 45 59.417 c -5.045 0 -9.149 -4.104 -9.149 -9.149 v -6.008 c 0 -0.552 0.448 -1 1 -1 h 16.298 c 0.553 0 1 0.448 1 1 v 6.008 C 54.149 55.313 50.045 59.417 45 59.417 z M 37.851 45.259 v 5.008 c 0 3.942 3.207 7.149 7.149 7.149 c 3.942 0 7.149 -3.207 7.149 -7.149 v -5.008 H 37.851 z" style="stroke: none; stroke-width: 1; stroke-dasharray: none; stroke-linecap: butt; stroke-linejoin: miter; stroke-miterlimit: 10; fill: rgb(0,218,172); fill-rule: nonzero; opacity: 1;" transform=" matrix(1 0 0 1 0 0) " stroke-linecap="round"/>
	<path d="M 45 53.326 c -0.552 0 -1 -0.447 -1 -1 v -2.47 c 0 -0.553 0.448 -1 1 -1 s 1 0.447 1 1 v 2.47 C 46 52.879 45.552 53.326 45 53.326 z" style="stroke: none; stroke-width: 1; stroke-dasharray: none; stroke-linecap: butt; stroke-linejoin: miter; stroke-miterlimit: 10; fill: rgb(0,218,172); fill-rule: nonzero; opacity: 1;" transform=" matrix(1 0 0 1 0 0) " stroke-linecap="round"/>
	<path d="M 50.021 45.259 H 39.979 c -0.552 0 -1 -0.448 -1 -1 v -7.655 c 0 -3.32 2.701 -6.021 6.021 -6.021 c 3.32 0 6.021 2.701 6.021 6.021 v 7.655 C 51.021 44.812 50.574 45.259 50.021 45.259 z M 40.979 43.259 h 8.042 v -6.655 c 0 -2.217 -1.804 -4.021 -4.021 -4.021 c -2.217 0 -4.021 1.804 -4.021 4.021 V 43.259 z" style="stroke: none; stroke-width: 1; stroke-dasharray: none; stroke-linecap: butt; stroke-linejoin: miter; stroke-miterlimit: 10; fill: rgb(0,218,172); fill-rule: nonzero; opacity: 1;" transform=" matrix(1 0 0 1 0 0) " stroke-linecap="round"/>
	<path d="M 8.274 69.82 c -0.242 0 -0.485 -0.088 -0.677 -0.265 c -0.406 -0.374 -0.432 -1.007 -0.058 -1.413 l 6.357 -6.896 c 0.189 -0.205 0.456 -0.322 0.735 -0.322 h 12.822 c 0.552 0 1 0.447 1 1 s -0.448 1 -1 1 H 15.069 l -6.06 6.573 C 8.813 69.712 8.544 69.82 8.274 69.82 z" style="stroke: none; stroke-width: 1; stroke-dasharray: none; stroke-linecap: butt; stroke-linejoin: miter; stroke-miterlimit: 10; fill: rgb(0,218,172); fill-rule: nonzero; opacity: 1;" transform=" matrix(1 0 0 1 0 0) " stroke-linecap="round"/>
	<path d="M 81.726 69.82 c -0.27 0 -0.538 -0.108 -0.735 -0.322 l -6.06 -6.573 H 62.546 c -0.553 0 -1 -0.447 -1 -1 s 0.447 -1 1 -1 h 12.823 c 0.279 0 0.546 0.117 0.735 0.322 l 6.356 6.896 c 0.374 0.406 0.349 1.039 -0.058 1.413 C 82.211 69.732 81.968 69.82 81.726 69.82 z" style="stroke: none; stroke-width: 1; stroke-dasharray: none; stroke-linecap: butt; stroke-linejoin: miter; stroke-miterlimit: 10; fill: rgb(0,218,172); fill-rule: nonzero; opacity: 1;" transform=" matrix(1 0 0 1 0 0) " stroke-linecap="round"/>
	<path d="M 22.467 32.058 h -7.836 c -0.279 0 -0.546 -0.117 -0.735 -0.322 L 7.539 24.84 c -0.374 -0.406 -0.349 -1.039 0.058 -1.413 c 0.405 -0.375 1.039 -0.349 1.413 0.058 l 6.06 6.573 h 7.398 c 0.552 0 1 0.448 1 1 S 23.02 32.058 22.467 32.058 z" style="stroke: none; stroke-width: 1; stroke-dasharray: none; stroke-linecap: butt; stroke-linejoin: miter; stroke-miterlimit: 10; fill: rgb(0,218,172); fill-rule: nonzero; opacity: 1;" transform=" matrix(1 0 0 1 0 0) " stroke-linecap="round"/>
	<path d="M 45 77.345 c -0.143 0 -0.285 -0.03 -0.417 -0.091 c -11.43 -5.25 -23.115 -13.677 -23.115 -36.364 V 24.728 c 0 -0.533 0.418 -0.973 0.951 -0.999 c 7.233 -0.354 14.601 -3.989 21.899 -10.804 c 0.385 -0.358 0.98 -0.358 1.365 0 c 7.298 6.815 14.666 10.45 21.899 10.804 c 0.533 0.026 0.951 0.466 0.951 0.999 V 40.89 c 0 22.688 -11.686 31.113 -23.116 36.364 C 45.285 77.314 45.143 77.345 45 77.345 z M 23.467 25.663 V 40.89 c 0 21.281 10.813 29.354 21.533 34.354 c 10.72 -5 21.533 -13.072 21.533 -34.354 V 25.663 C 59.355 25.049 52.119 21.471 45 15.015 C 37.881 21.471 30.645 25.049 23.467 25.663 z" style="stroke: none; stroke-width: 1; stroke-dasharray: none; stroke-linecap: butt; stroke-linejoin: miter; stroke-miterlimit: 10; fill: rgb(0,218,172); fill-rule: nonzero; opacity: 1;" transform=" matrix(1 0 0 1 0 0) " stroke-linecap="round"/>
	<path d="M 5.338 77.345 C 2.395 77.345 0 74.95 0 72.007 s 2.395 -5.338 5.338 -5.338 c 2.943 0 5.337 2.395 5.337 5.338 S 8.281 77.345 5.338 77.345 z M 5.338 68.669 C 3.498 68.669 2 70.166 2 72.007 s 1.498 3.338 3.338 3.338 s 3.337 -1.497 3.337 -3.338 S 7.178 68.669 5.338 68.669 z" style="stroke: none; stroke-width: 1; stroke-dasharray: none; stroke-linecap: butt; stroke-linejoin: miter; stroke-miterlimit: 10; fill: rgb(0,218,172); fill-rule: nonzero; opacity: 1;" transform=" matrix(1 0 0 1 0 0) " stroke-linecap="round"/>
	<path d="M 84.662 77.345 c -2.943 0 -5.338 -2.395 -5.338 -5.338 s 2.395 -5.338 5.338 -5.338 S 90 69.063 90 72.007 S 87.605 77.345 84.662 77.345 z M 84.662 68.669 c -1.841 0 -3.338 1.497 -3.338 3.338 s 1.497 3.338 3.338 3.338 S 88 73.848 88 72.007 S 86.503 68.669 84.662 68.669 z" style="stroke: none; stroke-width: 1; stroke-dasharray: none; stroke-linecap: butt; stroke-linejoin: miter; stroke-miterlimit: 10; fill: rgb(0,218,172); fill-rule: nonzero; opacity: 1;" transform=" matrix(1 0 0 1 0 0) " stroke-linecap="round"/>
	<path d="M 5.338 26.314 C 2.395 26.314 0 23.919 0 20.976 c 0 -2.943 2.395 -5.337 5.338 -5.337 c 2.943 0 5.337 2.395 5.337 5.337 C 10.675 23.919 8.281 26.314 5.338 26.314 z M 5.338 17.639 C 3.498 17.639 2 19.136 2 20.976 s 1.498 3.338 3.338 3.338 s 3.337 -1.498 3.337 -3.338 S 7.178 17.639 5.338 17.639 z" style="stroke: none; stroke-width: 1; stroke-dasharray: none; stroke-linecap: butt; stroke-linejoin: miter; stroke-miterlimit: 10; fill: rgb(0,218,172); fill-rule: nonzero; opacity: 1;" transform=" matrix(1 0 0 1 0 0) " stroke-linecap="round"/>
	<path d="M 84.662 26.314 c -2.943 0 -5.338 -2.395 -5.338 -5.338 c 0 -2.943 2.395 -5.337 5.338 -5.337 S 90 18.033 90 20.976 C 90 23.919 87.605 26.314 84.662 26.314 z M 84.662 17.639 c -1.841 0 -3.338 1.497 -3.338 3.337 s 1.497 3.338 3.338 3.338 S 88 22.816 88 20.976 S 86.503 17.639 84.662 17.639 z" style="stroke: none; stroke-width: 1; stroke-dasharray: none; stroke-linecap: butt; stroke-linejoin: miter; stroke-miterlimit: 10; fill: rgb(0,218,172); fill-rule: nonzero; opacity: 1;" transform=" matrix(1 0 0 1 0 0) " stroke-linecap="round"/>
	<path d="M 75.369 32.058 h -7.836 c -0.553 0 -1 -0.448 -1 -1 s 0.447 -1 1 -1 h 7.397 l 6.06 -6.573 c 0.375 -0.406 1.007 -0.432 1.413 -0.058 c 0.406 0.375 0.432 1.007 0.058 1.413 l -6.356 6.896 C 75.915 31.941 75.648 32.058 75.369 32.058 z" style="stroke: none; stroke-width: 1; stroke-dasharray: none; stroke-linecap: butt; stroke-linejoin: miter; stroke-miterlimit: 10; fill: rgb(0,218,172); fill-rule: nonzero; opacity: 1;" transform=" matrix(1 0 0 1 0 0) " stroke-linecap="round"/>
	<path d="M 80.324 47.491 H 67.268 c -0.553 0 -1 -0.447 -1 -1 c 0 -0.552 0.447 -1 1 -1 h 13.057 c 0.553 0 1 0.448 1 1 C 81.324 47.044 80.877 47.491 80.324 47.491 z" style="stroke: none; stroke-width: 1; stroke-dasharray: none; stroke-linecap: butt; stroke-linejoin: miter; stroke-miterlimit: 10; fill: rgb(0,218,172); fill-rule: nonzero; opacity: 1;" transform=" matrix(1 0 0 1 0 0) " stroke-linecap="round"/>
	<path d="M 22.731 47.491 H 10.418 c -0.552 0 -1 -0.447 -1 -1 c 0 -0.552 0.448 -1 1 -1 h 12.313 c 0.552 0 1 0.448 1 1 C 23.731 47.044 23.283 47.491 22.731 47.491 z" style="stroke: none; stroke-width: 1; stroke-dasharray: none; stroke-linecap: butt; stroke-linejoin: miter; stroke-miterlimit: 10; fill: rgb(0,218,172); fill-rule: nonzero; opacity: 1;" transform=" matrix(1 0 0 1 0 0) " stroke-linecap="round"/>
	<path d="M 84.662 51.829 c -2.943 0 -5.338 -2.395 -5.338 -5.338 c 0 -2.943 2.395 -5.337 5.338 -5.337 S 90 43.548 90 46.491 C 90 49.435 87.605 51.829 84.662 51.829 z M 84.662 43.154 c -1.841 0 -3.338 1.497 -3.338 3.337 c 0 1.841 1.497 3.338 3.338 3.338 S 88 48.332 88 46.491 C 88 44.651 86.503 43.154 84.662 43.154 z" style="stroke: none; stroke-width: 1; stroke-dasharray: none; stroke-linecap: butt; stroke-linejoin: miter; stroke-miterlimit: 10; fill: rgb(0,218,172); fill-rule: nonzero; opacity: 1;" transform=" matrix(1 0 0 1 0 0) " stroke-linecap="round"/>
	<path d="M 5.338 51.829 C 2.395 51.829 0 49.435 0 46.491 c 0 -2.943 2.395 -5.337 5.338 -5.337 c 2.943 0 5.337 2.395 5.337 5.337 C 10.675 49.435 8.281 51.829 5.338 51.829 z M 5.338 43.154 C 3.498 43.154 2 44.651 2 46.491 c 0 1.841 1.498 3.338 3.338 3.338 s 3.337 -1.497 3.337 -3.338 C 8.675 44.651 7.178 43.154 5.338 43.154 z" style="stroke: none; stroke-width: 1; stroke-dasharray: none; stroke-linecap: butt; stroke-linejoin: miter; stroke-miterlimit: 10; fill: rgb(0,218,172); fill-rule: nonzero; opacity: 1;" transform=" matrix(1 0 0 1 0 0) " stroke-linecap="round"/>
</g>
</svg>