<svg xmlns="http://www.w3.org/2000/svg" xmlns:xlink="http://www.w3.org/1999/xlink" version="1.1" width="256" height="256" viewBox="0 0 256 256" xml:space="preserve">
<g style="stroke: none; stroke-width: 0; stroke-dasharray: none; stroke-linecap: butt; stroke-linejoin: miter; stroke-miterlimit: 10; fill: none; fill-rule: nonzero; opacity: 1;" transform="translate(0 -2.842170943040401e-14) scale(2.81 2.81)">
	<circle cx="45" cy="45" r="45" style="stroke: none; stroke-width: 1; stroke-dasharray: none; stroke-linecap: butt; stroke-linejoin: miter; stroke-miterlimit: 10; fill: rgb(0,0,0); fill-rule: nonzero; opacity: 1;" transform="  matrix(1 0 0 1 0 0) "/>
</g>
<g style="stroke: none; stroke-width: 0; stroke-dasharray: none; stroke-linecap: butt; stroke-linejoin: miter; stroke-miterlimit: 10; fill: none; fill-rule: nonzero; opacity: 1;" transform="translate(46.17984832069338 46.17984832069335) scale(1.82 1.82)">
	<path d="M 68.425 15.79 L 57.807 1.324 c -0.339 -0.462 -1.03 -0.462 -1.37 0 L 45.819 15.79 c -0.412 0.561 -0.011 1.352 0.685 1.352 h 3.611 v 36.926 c 0 1.13 0.916 2.046 2.046 2.046 h 9.923 c 1.13 0 2.046 -0.916 2.046 -2.046 V 17.142 h 3.611 C 68.437 17.142 68.837 16.351 68.425 15.79 z" style="stroke: none; stroke-width: 1; stroke-dasharray: none; stroke-linecap: butt; stroke-linejoin: miter; stroke-miterlimit: 10; fill: rgb(255,82,82); fill-rule: nonzero; opacity: 1;" transform=" matrix(1 0 0 1 0 0) " stroke-linecap="round"/>
	<path d="M 62.084 57.115 h -9.923 c -1.68 0 -3.046 -1.367 -3.046 -3.046 V 18.143 h -2.61 c -0.702 0 -1.334 -0.389 -1.651 -1.015 c -0.317 -0.625 -0.256 -1.365 0.159 -1.93 L 55.631 0.732 c 0.692 -0.946 2.289 -0.946 2.983 0 l 10.617 14.464 c 0.415 0.565 0.477 1.305 0.16 1.931 s -0.95 1.015 -1.651 1.015 h -2.61 v 35.925 C 65.13 55.748 63.763 57.115 62.084 57.115 z M 46.803 16.142 h 3.312 c 0.553 0 1.001 0.448 1.001 1.001 v 36.926 c 0 0.576 0.469 1.045 1.045 1.045 h 9.923 c 0.576 0 1.045 -0.469 1.045 -1.045 V 17.142 c 0 -0.553 0.447 -1.001 1.001 -1.001 h 3.312 L 57.122 2.082 L 46.803 16.142 z M 67.618 16.381 C 67.619 16.382 67.619 16.382 67.618 16.381 L 67.618 16.381 L 67.618 16.381 z" style="stroke: none; stroke-width: 1; stroke-dasharray: none; stroke-linecap: butt; stroke-linejoin: miter; stroke-miterlimit: 10; fill: rgb(0,0,0); fill-rule: nonzero; opacity: 1;" transform=" matrix(1 0 0 1 0 0) " stroke-linecap="round"/>
	<path d="M 41.953 34.348 L 24.428 10.474 c -0.56 -0.763 -1.701 -0.763 -2.261 0 L 4.642 34.348 c -0.68 0.926 -0.018 2.232 1.13 2.232 h 5.96 v 49.065 c 0 1.865 1.512 3.377 3.377 3.377 h 16.377 c 1.865 0 3.377 -1.512 3.377 -3.377 V 36.58 h 5.96 C 41.971 36.58 42.633 35.274 41.953 34.348 z" style="stroke: none; stroke-width: 1; stroke-dasharray: none; stroke-linecap: butt; stroke-linejoin: miter; stroke-miterlimit: 10; fill: rgb(78,155,255); fill-rule: nonzero; opacity: 1;" transform=" matrix(1 0 0 1 0 0) " stroke-linecap="round"/>
	<path d="M 31.486 90.023 H 15.109 c -2.413 0 -4.377 -1.964 -4.377 -4.377 V 37.581 h -4.96 c -0.911 0 -1.732 -0.505 -2.144 -1.317 c -0.411 -0.813 -0.332 -1.773 0.207 -2.508 L 21.361 9.882 c 0.458 -0.623 1.164 -0.98 1.937 -0.98 c 0.773 0 1.479 0.357 1.937 0.98 L 42.76 33.756 c 0 0 0 0 0 0 c 0.539 0.734 0.618 1.695 0.206 2.508 c -0.411 0.812 -1.233 1.317 -2.143 1.317 h -4.96 v 48.065 C 35.863 88.059 33.9 90.023 31.486 90.023 z M 23.298 10.902 c -0.076 0 -0.219 0.021 -0.324 0.164 L 5.449 34.94 c -0.127 0.173 -0.076 0.337 -0.035 0.419 c 0.042 0.082 0.144 0.22 0.359 0.22 h 5.96 c 0.553 0 1.001 0.448 1.001 1.001 v 49.065 c 0 1.31 1.066 2.376 2.376 2.376 h 16.377 c 1.31 0 2.376 -1.066 2.376 -2.376 V 36.58 c 0 -0.553 0.448 -1.001 1.001 -1.001 h 5.96 c 0.215 0 0.317 -0.138 0.358 -0.22 c 0.042 -0.082 0.093 -0.246 -0.034 -0.419 L 23.621 11.066 C 23.517 10.923 23.374 10.902 23.298 10.902 z" style="stroke: none; stroke-width: 1; stroke-dasharray: none; stroke-linecap: butt; stroke-linejoin: miter; stroke-miterlimit: 10; fill: rgb(0,0,0); fill-rule: nonzero; opacity: 1;" transform=" matrix(1 0 0 1 0 0) " stroke-linecap="round"/>
	<path d="M 71.213 46.04 c -1.709 0 -3.241 -0.983 -4.025 -2.501 c -0.156 -0.302 -0.32 -0.603 -0.492 -0.901 c -0.172 -0.297 -0.351 -0.59 -0.534 -0.877 c -0.921 -1.439 -1.007 -3.257 -0.152 -4.736 l 0 0 c 1.241 -2.149 0.504 -4.897 -1.644 -6.138 l -5.951 -3.436 c -2.149 -1.241 -4.897 -0.504 -6.138 1.644 l -0.001 0.002 c -0.842 1.458 -2.427 2.317 -4.109 2.235 c -0.73 -0.035 -1.464 -0.036 -2.198 0 c -1.678 0.081 -3.26 -0.78 -4.1 -2.236 l -0.001 -0.001 c -1.241 -2.149 -3.989 -2.885 -6.138 -1.644 l -5.951 3.436 c -2.149 1.241 -2.885 3.989 -1.644 6.138 l 0.001 0.001 c 0.84 1.455 0.796 3.256 -0.114 4.669 c -0.398 0.618 -0.764 1.254 -1.099 1.904 c -0.77 1.497 -2.307 2.44 -3.99 2.44 h -0.002 c -2.481 0 -4.493 2.012 -4.493 4.493 v 6.873 c 0 2.481 2.012 4.493 4.493 4.493 l 0 0 c 1.709 0 3.241 0.983 4.025 2.501 c 0.156 0.302 0.32 0.603 0.492 0.901 s 0.351 0.59 0.534 0.877 c 0.921 1.439 1.007 3.257 0.152 4.736 c -1.241 2.149 -0.504 4.897 1.644 6.138 l 5.951 3.436 c 2.149 1.241 4.897 0.504 6.138 -1.644 l 0.001 -0.002 c 0.842 -1.458 2.427 -2.317 4.109 -2.236 c 0.73 0.035 1.464 0.036 2.198 0 c 1.678 -0.081 3.26 0.78 4.1 2.236 l 0.001 0.001 c 1.241 2.149 3.989 2.885 6.138 1.644 l 5.951 -3.436 c 2.149 -1.241 2.885 -3.989 1.644 -6.138 l -0.001 -0.001 c -0.84 -1.455 -0.796 -3.256 0.114 -4.669 c 0.398 -0.618 0.764 -1.254 1.099 -1.904 c 0.77 -1.497 2.307 -2.44 3.99 -2.44 h 0.002 c 2.481 0 4.493 -2.012 4.493 -4.493 v -6.873 C 75.707 48.051 73.695 46.04 71.213 46.04 z" style="stroke: none; stroke-width: 1; stroke-dasharray: none; stroke-linecap: butt; stroke-linejoin: miter; stroke-miterlimit: 10; fill: rgb(255,219,49); fill-rule: nonzero; opacity: 1;" transform=" matrix(1 0 0 1 0 0) " stroke-linecap="round"/>
	<path d="M 53.576 65.24 c -6.225 3.594 -14.184 1.461 -17.778 -4.763 c -3.594 -6.225 -1.461 -14.184 4.763 -17.778 c 6.225 -3.594 14.184 -1.461 17.778 4.763 C 61.933 53.687 59.801 61.646 53.576 65.24 z" style="stroke: none; stroke-width: 1; stroke-dasharray: none; stroke-linecap: butt; stroke-linejoin: miter; stroke-miterlimit: 10; fill: rgb(177,227,248); fill-rule: nonzero; opacity: 1;" transform=" matrix(1 0 0 1 0 0) " stroke-linecap="round"/>
	<path d="M 37.966 82.093 c -0.952 0 -1.892 -0.25 -2.738 -0.739 l -5.952 -3.436 c -2.623 -1.515 -3.525 -4.881 -2.011 -7.505 c 0.656 -1.133 0.606 -2.549 -0.128 -3.696 c -0.191 -0.298 -0.378 -0.604 -0.557 -0.915 c -0.181 -0.314 -0.353 -0.628 -0.515 -0.943 c -0.625 -1.209 -1.827 -1.96 -3.136 -1.96 c -3.029 0 -5.494 -2.464 -5.494 -5.493 v -6.873 c 0 -3.03 2.464 -5.494 5.494 -5.494 c 1.313 0 2.501 -0.727 3.103 -1.897 c 0.35 -0.681 0.736 -1.349 1.148 -1.988 c 0.705 -1.096 0.744 -2.474 0.102 -3.603 c -0.005 -0.008 -0.01 -0.017 -0.015 -0.025 c -0.733 -1.271 -0.928 -2.751 -0.549 -4.169 c 0.38 -1.417 1.289 -2.602 2.559 -3.336 l 5.952 -3.437 c 2.614 -1.506 5.965 -0.619 7.488 1.982 c 0.006 0.01 0.012 0.02 0.018 0.03 c 0.655 1.134 1.886 1.807 3.185 1.736 c 0.745 -0.036 1.517 -0.036 2.294 0 c 1.317 0.057 2.526 -0.594 3.183 -1.716 c 0.004 -0.007 0.008 -0.015 0.012 -0.021 c 1.516 -2.624 4.883 -3.524 7.505 -2.011 l 5.951 3.437 c 1.271 0.734 2.18 1.918 2.56 3.336 c 0.379 1.418 0.185 2.898 -0.549 4.169 c -0.655 1.134 -0.606 2.55 0.128 3.697 c 0.192 0.298 0.38 0.605 0.56 0.917 c 0.179 0.309 0.35 0.623 0.513 0.939 c 0.625 1.21 1.827 1.96 3.137 1.96 c 3.03 0 5.494 2.464 5.494 5.492 v 6.874 c 0 3.029 -2.464 5.493 -5.494 5.493 c -1.313 0 -2.501 0.727 -3.104 1.898 c -0.349 0.678 -0.735 1.347 -1.146 1.987 c -0.71 1.103 -0.745 2.492 -0.089 3.627 c 0.734 1.271 0.929 2.751 0.55 4.169 c -0.38 1.418 -1.289 2.603 -2.56 3.337 l -5.951 3.436 c -2.623 1.514 -5.989 0.613 -7.505 -2.011 c -0.657 -1.135 -1.888 -1.808 -3.186 -1.738 c -0.74 0.037 -1.512 0.037 -2.295 0 c -1.312 -0.064 -2.539 0.602 -3.194 1.737 c -0.004 0.008 -0.009 0.015 -0.014 0.022 c -0.734 1.26 -1.914 2.161 -3.323 2.538 C 38.924 82.03 38.443 82.093 37.966 82.093 z M 28.986 36.503 c 0.005 0.008 0.01 0.017 0.015 0.024 c 1.032 1.787 0.979 3.975 -0.139 5.711 c -0.376 0.585 -0.73 1.197 -1.051 1.821 c -0.947 1.839 -2.817 2.982 -4.88 2.982 c -1.928 0 -3.495 1.567 -3.495 3.493 v 6.873 c 0 1.926 1.567 3.492 3.492 3.492 c 2.061 0 3.944 1.166 4.914 3.043 c 0.149 0.289 0.307 0.576 0.47 0.861 c 0.163 0.281 0.334 0.562 0.51 0.835 c 1.14 1.781 1.207 3.994 0.176 5.777 c -0.962 1.667 -0.389 3.808 1.278 4.77 l 5.952 3.436 c 0.807 0.466 1.748 0.591 2.65 0.349 c 0.901 -0.241 1.654 -0.819 2.12 -1.627 c 0.004 -0.008 0.009 -0.015 0.014 -0.022 c 1.033 -1.774 2.953 -2.809 5.011 -2.715 c 0.713 0.035 1.421 0.036 2.1 0 c 2.082 -0.088 3.985 0.949 5.017 2.736 c 0.964 1.669 3.106 2.24 4.772 1.279 l 5.951 -3.436 c 0.808 -0.466 1.386 -1.219 1.628 -2.121 c 0.241 -0.901 0.117 -1.842 -0.35 -2.65 c -1.033 -1.787 -0.979 -3.976 0.139 -5.712 c 0.376 -0.585 0.73 -1.198 1.049 -1.819 c 0.948 -1.841 2.818 -2.984 4.88 -2.984 c 1.929 0 3.496 -1.566 3.496 -3.492 v -6.874 c 0 -1.925 -1.567 -3.491 -3.493 -3.491 c -2.062 0 -3.944 -1.166 -4.915 -3.042 c -0.149 -0.287 -0.305 -0.575 -0.47 -0.859 c -0.163 -0.285 -0.333 -0.563 -0.509 -0.835 c -1.14 -1.781 -1.208 -3.994 -0.178 -5.778 c 0.467 -0.808 0.591 -1.749 0.35 -2.65 c -0.241 -0.901 -0.82 -1.654 -1.628 -2.12 l -5.951 -3.437 c -1.661 -0.96 -3.792 -0.394 -4.76 1.259 c -0.004 0.007 -0.008 0.014 -0.012 0.021 c -1.032 1.788 -2.95 2.834 -5.024 2.734 c -0.708 -0.034 -1.415 -0.034 -2.1 0 c -2.06 0.079 -3.964 -0.937 -5 -2.706 c -0.006 -0.01 -0.012 -0.02 -0.018 -0.03 c -0.962 -1.668 -3.102 -2.241 -4.77 -1.278 l -5.952 3.437 C 28.617 32.713 28.042 34.838 28.986 36.503 z" style="stroke: none; stroke-width: 1; stroke-dasharray: none; stroke-linecap: butt; stroke-linejoin: miter; stroke-miterlimit: 10; fill: rgb(0,0,0); fill-rule: nonzero; opacity: 1;" transform=" matrix(1 0 0 1 0 0) " stroke-linecap="round"/>
	<path d="M 47.093 67.98 c -4.848 0 -9.568 -2.513 -12.161 -7.004 c -3.863 -6.693 -1.562 -15.28 5.13 -19.145 c 6.693 -3.863 15.28 -1.563 19.145 5.13 c 3.863 6.693 1.562 15.281 -5.13 19.145 C 51.875 67.377 49.468 67.98 47.093 67.98 z M 47.048 41.958 c -2.037 0 -4.099 0.517 -5.986 1.607 c -5.736 3.312 -7.709 10.673 -4.397 16.411 c 3.312 5.736 10.676 7.708 16.411 4.397 c 2.779 -1.604 4.767 -4.195 5.598 -7.295 c 0.831 -3.099 0.404 -6.337 -1.201 -9.116 C 55.249 44.113 51.203 41.958 47.048 41.958 z" style="stroke: none; stroke-width: 1; stroke-dasharray: none; stroke-linecap: butt; stroke-linejoin: miter; stroke-miterlimit: 10; fill: rgb(0,0,0); fill-rule: nonzero; opacity: 1;" transform=" matrix(1 0 0 1 0 0) " stroke-linecap="round"/>
	<path d="M 85.424 59.527 L 72.109 41.388 c -0.426 -0.58 -1.292 -0.58 -1.718 0 L 57.076 59.527 c -0.517 0.704 -0.014 1.696 0.859 1.696 h 4.528 v 25.234 c 0 1.417 1.149 2.565 2.565 2.565 h 12.443 c 1.417 0 2.565 -1.149 2.565 -2.565 V 61.223 h 4.528 C 85.438 61.223 85.94 60.231 85.424 59.527 z" style="stroke: none; stroke-width: 1; stroke-dasharray: none; stroke-linecap: butt; stroke-linejoin: miter; stroke-miterlimit: 10; fill: rgb(43,248,25); fill-rule: nonzero; opacity: 1;" transform=" matrix(1 0 0 1 0 0) " stroke-linecap="round"/>
	<path d="M 77.472 90.023 H 65.029 c -1.967 0 -3.566 -1.599 -3.566 -3.566 V 62.224 h -3.527 c -0.783 0 -1.489 -0.434 -1.843 -1.132 c -0.354 -0.699 -0.286 -1.524 0.177 -2.156 l 13.315 -18.139 c 0.395 -0.536 1.005 -0.813 1.667 -0.843 c 0.664 0 1.271 0.308 1.664 0.844 L 86.23 58.935 c 0.001 0 0.001 0 0.001 0 c 0.463 0.632 0.531 1.458 0.177 2.156 c -0.354 0.699 -1.06 1.132 -1.843 1.132 h -3.527 v 24.233 C 81.038 88.423 79.438 90.023 77.472 90.023 z M 70.391 41.388 l 0.806 0.592 L 57.883 60.119 l 0.053 0.104 h 4.528 c 0.553 0 1.001 0.447 1.001 1.001 v 25.234 c 0 0.863 0.703 1.565 1.565 1.565 h 12.443 c 0.863 0 1.565 -0.703 1.565 -1.565 V 61.223 c 0 -0.553 0.447 -1.001 1.001 -1.001 h 4.528 l 0.859 -0.696 l -0.806 0.592 L 71.302 41.98 L 70.391 41.388 z" style="stroke: none; stroke-width: 1; stroke-dasharray: none; stroke-linecap: butt; stroke-linejoin: miter; stroke-miterlimit: 10; fill: rgb(0,0,0); fill-rule: nonzero; opacity: 1;" transform=" matrix(1 0 0 1 0 0) " stroke-linecap="round"/>
</g>
</svg>