<svg xmlns="http://www.w3.org/2000/svg" xmlns:xlink="http://www.w3.org/1999/xlink" version="1.1" width="256" height="256" viewBox="0 0 256 256" xml:space="preserve">
<g style="stroke: none; stroke-width: 0; stroke-dasharray: none; stroke-linecap: butt; stroke-linejoin: miter; stroke-miterlimit: 10; fill: none; fill-rule: nonzero; opacity: 1;" transform="translate(0 -2.842170943040401e-14) scale(2.81 2.81)">
	<circle cx="45" cy="45" r="45" style="stroke: none; stroke-width: 1; stroke-dasharray: none; stroke-linecap: butt; stroke-linejoin: miter; stroke-miterlimit: 10; fill: rgb(0,0,0); fill-rule: nonzero; opacity: 1;" transform="  matrix(1 0 0 1 0 0) "/>
</g>
<g style="stroke: none; stroke-width: 0; stroke-dasharray: none; stroke-linecap: butt; stroke-linejoin: miter; stroke-miterlimit: 10; fill: none; fill-rule: nonzero; opacity: 1;" transform="translate(46.17984832069338 46.17984832069335) scale(1.82 1.82)">
	<path d="M 39.315 31.269 c -0.827 0 -1.65 -0.34 -2.243 -1.007 c -0.55 -0.619 -1.141 -1.213 -1.756 -1.767 c -4.078 -3.669 -9.347 -5.689 -14.838 -5.689 H 3 c -1.657 0 -3 -1.343 -3 -3 s 1.343 -3 3 -3 h 17.478 c 6.976 0 13.67 2.567 18.851 7.229 c 0.78 0.702 1.53 1.456 2.228 2.241 c 1.101 1.238 0.989 3.134 -0.249 4.235 C 40.736 31.019 40.024 31.269 39.315 31.269 z" style="stroke: none; stroke-width: 1; stroke-dasharray: none; stroke-linecap: butt; stroke-linejoin: miter; stroke-miterlimit: 10; fill: rgb(0,218,29); fill-rule: nonzero; opacity: 1;" transform=" matrix(1 0 0 1 0 0) " stroke-linecap="round"/>
	<path d="M 89.295 72.105 c 0.051 -0.061 0.105 -0.118 0.151 -0.183 c 0.078 -0.111 0.142 -0.23 0.205 -0.352 c 0.03 -0.058 0.067 -0.112 0.093 -0.172 c 0.064 -0.146 0.11 -0.3 0.15 -0.457 c 0.011 -0.042 0.03 -0.082 0.039 -0.125 C 89.976 70.615 90 70.407 90 70.193 c 0 -0.214 -0.024 -0.422 -0.067 -0.623 c -0.01 -0.045 -0.029 -0.087 -0.041 -0.131 c -0.04 -0.155 -0.085 -0.307 -0.149 -0.451 c -0.026 -0.06 -0.063 -0.113 -0.093 -0.171 c -0.063 -0.122 -0.128 -0.242 -0.207 -0.354 c -0.044 -0.062 -0.096 -0.117 -0.145 -0.176 c -0.081 -0.098 -0.164 -0.194 -0.257 -0.281 c -0.021 -0.019 -0.035 -0.043 -0.056 -0.062 L 78.15 58.368 c -1.241 -1.097 -3.138 -0.98 -4.234 0.262 c -1.097 1.241 -0.98 3.137 0.262 4.234 l 4.898 4.329 h -8.21 c -6.581 0 -12.784 -2.896 -17.018 -7.945 c -1.064 -1.268 -2.955 -1.436 -4.227 -0.371 c -1.27 1.064 -1.436 2.957 -0.371 4.227 c 5.376 6.412 13.255 10.09 21.615 10.09 h 8.21 l -4.899 4.33 c -1.241 1.098 -1.357 2.993 -0.261 4.235 c 0.593 0.67 1.419 1.013 2.249 1.013 c 0.706 0 1.415 -0.248 1.986 -0.752 l 10.836 -9.578 c 0.022 -0.02 0.037 -0.044 0.059 -0.065 C 89.136 72.292 89.216 72.199 89.295 72.105 z" style="stroke: none; stroke-width: 1; stroke-dasharray: none; stroke-linecap: butt; stroke-linejoin: miter; stroke-miterlimit: 10; fill: rgb(0,218,29); fill-rule: nonzero; opacity: 1;" transform=" matrix(1 0 0 1 0 0) " stroke-linecap="round"/>
	<path d="M 89.3 21.711 c 0.048 -0.058 0.101 -0.113 0.144 -0.175 c 0.079 -0.112 0.144 -0.233 0.208 -0.356 c 0.03 -0.057 0.066 -0.11 0.092 -0.169 c 0.064 -0.145 0.109 -0.298 0.149 -0.453 c 0.011 -0.044 0.031 -0.085 0.04 -0.129 C 89.976 20.228 90 20.02 90 19.806 c 0 -0.214 -0.024 -0.422 -0.067 -0.623 c -0.009 -0.045 -0.029 -0.086 -0.04 -0.13 c -0.04 -0.155 -0.086 -0.308 -0.149 -0.452 c -0.026 -0.059 -0.062 -0.112 -0.092 -0.169 c -0.064 -0.122 -0.128 -0.243 -0.208 -0.355 c -0.044 -0.062 -0.096 -0.117 -0.145 -0.176 c -0.081 -0.098 -0.163 -0.194 -0.256 -0.28 c -0.021 -0.019 -0.036 -0.043 -0.057 -0.062 L 78.15 7.98 C 76.909 6.883 75.013 7 73.916 8.242 c -1.097 1.242 -0.98 3.137 0.262 4.235 l 4.898 4.33 h -8.211 c -15.547 0 -28.194 12.647 -28.194 28.194 c 0 12.237 -9.956 22.193 -22.193 22.193 H 3 c -1.657 0 -3 1.343 -3 3 s 1.343 3 3 3 h 17.478 c 15.546 0 28.193 -12.647 28.193 -28.193 c 0 -12.238 9.956 -22.194 22.194 -22.194 h 8.211 l -4.898 4.33 c -1.242 1.098 -1.358 2.993 -0.262 4.235 c 0.593 0.671 1.419 1.013 2.249 1.013 c 0.706 0 1.415 -0.248 1.985 -0.752 l 10.836 -9.578 c 0.021 -0.019 0.036 -0.043 0.057 -0.062 C 89.136 21.905 89.218 21.809 89.3 21.711 z" style="stroke: none; stroke-width: 1; stroke-dasharray: none; stroke-linecap: butt; stroke-linejoin: miter; stroke-miterlimit: 10; fill: rgb(141,34,237); fill-rule: nonzero; opacity: 1;" transform=" matrix(1 0 0 1 0 0) " stroke-linecap="round"/>
</g>
</svg>