<svg xmlns="http://www.w3.org/2000/svg" xmlns:xlink="http://www.w3.org/1999/xlink" version="1.1" width="256" height="256" viewBox="0 0 256 256" xml:space="preserve">
<g style="stroke: none; stroke-width: 0; stroke-dasharray: none; stroke-linecap: butt; stroke-linejoin: miter; stroke-miterlimit: 10; fill: none; fill-rule: nonzero; opacity: 1;" transform="translate(45.02412451361867 45.024124513618645) scale(1.83 1.83)">
	<path d="M 75.548 63.423 H 14.452 V 39.455 c 0 -3.395 2.752 -6.147 6.147 -6.147 h 48.801 c 3.395 0 6.147 2.752 6.147 6.147 V 63.423 z" style="stroke: none; stroke-width: 1; stroke-dasharray: none; stroke-linecap: butt; stroke-linejoin: miter; stroke-miterlimit: 10; fill: rgb(248,185,31); fill-rule: nonzero; opacity: 1;" transform=" matrix(1 0 0 1 0 0) " stroke-linecap="round"/>
	<path d="M 78.214 89 H 11.786 c -2.759 0 -4.995 -2.236 -4.995 -4.995 v -9.071 c 0 -2.759 2.236 -4.995 4.995 -4.995 h 66.428 c 2.759 0 4.995 2.236 4.995 4.995 v 9.071 C 83.209 86.764 80.973 89 78.214 89 z" style="stroke: none; stroke-width: 1; stroke-dasharray: none; stroke-linecap: butt; stroke-linejoin: miter; stroke-miterlimit: 10; fill: rgb(118,183,248); fill-rule: nonzero; opacity: 1;" transform=" matrix(1 0 0 1 0 0) " stroke-linecap="round"/>
	<path d="M 30.276 20.891 c 0 -7.301 5.939 -13.24 13.24 -13.24 h 2.968 c 7.301 0 13.241 5.939 13.241 13.24 v 12.416 h 6.651 V 20.891 C 66.376 9.924 57.453 1 46.484 1 h -2.968 C 32.548 1 23.624 9.924 23.624 20.891 v 12.416 h 6.651 V 20.891 z" style="stroke: none; stroke-width: 1; stroke-dasharray: none; stroke-linecap: butt; stroke-linejoin: miter; stroke-miterlimit: 10; fill: rgb(153,166,175); fill-rule: nonzero; opacity: 1;" transform=" matrix(1 0 0 1 0 0) " stroke-linecap="round"/>
	<path d="M 75.548 64.423 H 14.452 c -0.552 0 -1 -0.447 -1 -1 V 39.455 c 0 -3.941 3.207 -7.147 7.147 -7.147 H 69.4 c 3.941 0 7.147 3.207 7.147 7.147 v 23.968 C 76.548 63.976 76.101 64.423 75.548 64.423 z M 15.452 62.423 h 59.096 V 39.455 c 0 -2.838 -2.31 -5.147 -5.147 -5.147 H 20.599 c -2.838 0 -5.147 2.309 -5.147 5.147 V 62.423 z" style="stroke: none; stroke-width: 1; stroke-dasharray: none; stroke-linecap: butt; stroke-linejoin: miter; stroke-miterlimit: 10; fill: rgb(0,0,0); fill-rule: nonzero; opacity: 1;" transform=" matrix(1 0 0 1 0 0) " stroke-linecap="round"/>
	<path d="M 78.214 90 H 11.786 c -3.306 0 -5.995 -2.689 -5.995 -5.995 v -9.071 c 0 -3.306 2.689 -5.995 5.995 -5.995 h 66.428 c 3.306 0 5.995 2.689 5.995 5.995 v 9.071 C 84.209 87.311 81.52 90 78.214 90 z M 11.786 70.938 c -2.203 0 -3.995 1.792 -3.995 3.995 v 9.071 c 0 2.203 1.792 3.995 3.995 3.995 h 66.428 c 2.203 0 3.995 -1.792 3.995 -3.995 v -9.071 c 0 -2.203 -1.792 -3.995 -3.995 -3.995 H 11.786 z" style="stroke: none; stroke-width: 1; stroke-dasharray: none; stroke-linecap: butt; stroke-linejoin: miter; stroke-miterlimit: 10; fill: rgb(0,0,0); fill-rule: nonzero; opacity: 1;" transform=" matrix(1 0 0 1 0 0) " stroke-linecap="round"/>
	<path d="M 45 81.47 c -0.53 0 -1.04 -0.21 -1.41 -0.59 C 43.21 80.51 43 80 43 79.47 c 0 -0.13 0.01 -0.26 0.04 -0.39 c 0.02 -0.13 0.06 -0.261 0.11 -0.38 c 0.05 -0.12 0.11 -0.23 0.19 -0.341 c 0.07 -0.109 0.15 -0.21 0.25 -0.3 c 0.74 -0.75 2.08 -0.75 2.82 0 c 0.1 0.09 0.18 0.19 0.25 0.3 c 0.069 0.11 0.14 0.221 0.189 0.341 c 0.05 0.119 0.09 0.25 0.11 0.38 c 0.03 0.13 0.04 0.26 0.04 0.39 c 0 0.53 -0.21 1.04 -0.59 1.41 C 46.03 81.26 45.53 81.47 45 81.47 z" style="stroke: none; stroke-width: 1; stroke-dasharray: none; stroke-linecap: butt; stroke-linejoin: miter; stroke-miterlimit: 10; fill: rgb(0,0,0); fill-rule: nonzero; opacity: 1;" transform=" matrix(1 0 0 1 0 0) " stroke-linecap="round"/>
	<path d="M 57.77 81.47 c -0.54 0 -1.04 -0.21 -1.42 -0.59 c -0.37 -0.37 -0.58 -0.88 -0.58 -1.41 c 0 -0.13 0.011 -0.26 0.04 -0.39 c 0.021 -0.13 0.061 -0.261 0.11 -0.38 c 0.05 -0.12 0.11 -0.23 0.18 -0.341 c 0.08 -0.109 0.16 -0.21 0.25 -0.3 c 0.101 -0.1 0.2 -0.18 0.311 -0.25 c 0.109 -0.08 0.22 -0.14 0.34 -0.189 c 0.12 -0.051 0.25 -0.09 0.38 -0.11 c 0.64 -0.13 1.34 0.08 1.8 0.55 c 0.09 0.09 0.18 0.19 0.25 0.3 c 0.07 0.11 0.14 0.221 0.19 0.341 c 0.05 0.119 0.08 0.25 0.109 0.38 c 0.03 0.13 0.04 0.26 0.04 0.39 c 0 0.53 -0.21 1.04 -0.59 1.41 C 58.8 81.26 58.3 81.47 57.77 81.47 z" style="stroke: none; stroke-width: 1; stroke-dasharray: none; stroke-linecap: butt; stroke-linejoin: miter; stroke-miterlimit: 10; fill: rgb(0,0,0); fill-rule: nonzero; opacity: 1;" transform=" matrix(1 0 0 1 0 0) " stroke-linecap="round"/>
	<path d="M 70.54 81.47 c -0.54 0 -1.04 -0.21 -1.42 -0.59 c -0.37 -0.37 -0.58 -0.88 -0.58 -1.41 c 0 -0.13 0.01 -0.26 0.04 -0.39 c 0.02 -0.13 0.06 -0.261 0.109 -0.38 c 0.051 -0.12 0.11 -0.23 0.181 -0.341 c 0.08 -0.109 0.16 -0.21 0.25 -0.3 c 0.1 -0.1 0.199 -0.18 0.31 -0.25 c 0.101 -0.08 0.22 -0.14 0.34 -0.189 c 0.12 -0.051 0.25 -0.09 0.38 -0.11 c 0.641 -0.13 1.341 0.08 1.801 0.55 c 0.09 0.09 0.18 0.19 0.25 0.3 c 0.069 0.11 0.13 0.221 0.18 0.341 c 0.05 0.119 0.09 0.25 0.12 0.38 c 0.02 0.13 0.04 0.26 0.04 0.39 c 0 0.53 -0.21 1.04 -0.59 1.41 C 71.569 81.26 71.069 81.47 70.54 81.47 z" style="stroke: none; stroke-width: 1; stroke-dasharray: none; stroke-linecap: butt; stroke-linejoin: miter; stroke-miterlimit: 10; fill: rgb(0,0,0); fill-rule: nonzero; opacity: 1;" transform=" matrix(1 0 0 1 0 0) " stroke-linecap="round"/>
	<path d="M 32.23 81.47 c -0.53 0 -1.04 -0.21 -1.41 -0.59 c -0.38 -0.37 -0.59 -0.88 -0.59 -1.41 s 0.21 -1.04 0.59 -1.41 c 0.46 -0.47 1.15 -0.68 1.8 -0.55 c 0.13 0.021 0.26 0.06 0.38 0.11 c 0.12 0.05 0.23 0.109 0.34 0.189 c 0.11 0.07 0.21 0.15 0.31 0.25 c 0.09 0.09 0.17 0.19 0.24 0.3 c 0.08 0.11 0.14 0.221 0.19 0.341 c 0.05 0.119 0.09 0.25 0.11 0.38 c 0.03 0.13 0.04 0.26 0.04 0.39 c 0 0.53 -0.21 1.04 -0.58 1.41 C 33.27 81.26 32.77 81.47 32.23 81.47 z" style="stroke: none; stroke-width: 1; stroke-dasharray: none; stroke-linecap: butt; stroke-linejoin: miter; stroke-miterlimit: 10; fill: rgb(0,0,0); fill-rule: nonzero; opacity: 1;" transform=" matrix(1 0 0 1 0 0) " stroke-linecap="round"/>
	<path d="M 19.46 81.47 c -0.13 0 -0.26 -0.01 -0.39 -0.04 c -0.13 -0.02 -0.25 -0.06 -0.37 -0.11 c -0.12 -0.05 -0.24 -0.109 -0.35 -0.189 c -0.1 -0.07 -0.21 -0.15 -0.3 -0.25 c -0.38 -0.38 -0.59 -0.88 -0.59 -1.41 c 0 -0.13 0.02 -0.26 0.04 -0.39 c 0.03 -0.13 0.07 -0.261 0.12 -0.38 c 0.05 -0.12 0.11 -0.23 0.18 -0.341 c 0.07 -0.109 0.16 -0.21 0.25 -0.3 c 0.09 -0.1 0.19 -0.18 0.3 -0.25 c 0.11 -0.08 0.23 -0.14 0.35 -0.189 c 0.12 -0.051 0.24 -0.09 0.37 -0.11 c 0.66 -0.13 1.35 0.08 1.81 0.55 c 0.37 0.37 0.58 0.88 0.58 1.41 s -0.2 1.04 -0.58 1.41 C 20.5 81.26 20 81.47 19.46 81.47 z" style="stroke: none; stroke-width: 1; stroke-dasharray: none; stroke-linecap: butt; stroke-linejoin: miter; stroke-miterlimit: 10; fill: rgb(0,0,0); fill-rule: nonzero; opacity: 1;" transform=" matrix(1 0 0 1 0 0) " stroke-linecap="round"/>
	<path d="M 67.376 34.308 h -8.651 V 20.892 c 0 -6.75 -5.491 -12.24 -12.24 -12.24 h -2.969 c -6.749 0 -12.24 5.491 -12.24 12.24 v 13.416 h -8.651 V 20.892 C 22.625 9.372 31.996 0 43.516 0 h 2.969 c 11.52 0 20.892 9.372 20.892 20.892 V 34.308 z M 60.725 32.308 h 4.651 V 20.892 C 65.376 10.475 56.901 2 46.484 2 h -2.969 c -10.417 0 -18.891 8.475 -18.891 18.892 v 11.416 h 4.651 V 20.892 c 0 -7.852 6.388 -14.24 14.24 -14.24 h 2.969 c 7.853 0 14.24 6.388 14.24 14.24 V 32.308 z" style="stroke: none; stroke-width: 1; stroke-dasharray: none; stroke-linecap: butt; stroke-linejoin: miter; stroke-miterlimit: 10; fill: rgb(0,0,0); fill-rule: nonzero; opacity: 1;" transform=" matrix(1 0 0 1 0 0) " stroke-linecap="round"/>
</g>
</svg>