<svg xmlns="http://www.w3.org/2000/svg" xmlns:xlink="http://www.w3.org/1999/xlink" version="1.1" width="256" height="256" viewBox="0 0 256 256" xml:space="preserve">
<g style="stroke: none; stroke-width: 0; stroke-dasharray: none; stroke-linecap: butt; stroke-linejoin: miter; stroke-miterlimit: 10; fill: none; fill-rule: nonzero; opacity: 1;" transform="translate(45.02412451361867 45.024124513618645) scale(1.83 1.83)">
	<path d="M 45 89 L 45 89 c -12.023 0 -21.769 -9.746 -21.769 -21.769 V 40.6 c 0 -5.774 4.68 -10.454 10.454 -10.454 h 22.631 c 5.774 0 10.454 4.68 10.454 10.454 v 26.631 C 66.769 79.254 57.023 89 45 89 z" style="stroke: none; stroke-width: 1; stroke-dasharray: none; stroke-linecap: butt; stroke-linejoin: miter; stroke-miterlimit: 10; fill: rgb(225,17,38); fill-rule: nonzero; opacity: 1;" transform=" matrix(1 0 0 1 0 0) " stroke-linecap="round"/>
	<path d="M 70.54 2.369 c -1.825 -1.826 -4.787 -1.826 -6.613 0 l -9.08 9.08 c -0.055 0.055 -0.093 0.12 -0.145 0.178 c 2.572 1.765 4.629 4.216 5.931 7.085 c 0.293 -0.184 0.574 -0.394 0.829 -0.649 l 9.08 -9.08 C 72.367 7.157 72.367 4.196 70.54 2.369 z" style="stroke: none; stroke-width: 1; stroke-dasharray: none; stroke-linecap: butt; stroke-linejoin: miter; stroke-miterlimit: 10; fill: rgb(155,150,183); fill-rule: nonzero; opacity: 1;" transform=" matrix(1 0 0 1 0 0) " stroke-linecap="round"/>
	<path d="M 29.367 18.712 c 1.302 -2.869 3.358 -5.319 5.931 -7.084 c -0.052 -0.057 -0.09 -0.123 -0.145 -0.178 l -9.08 -9.08 c -1.827 -1.826 -4.787 -1.826 -6.613 0 c -1.826 1.826 -1.826 4.787 0 6.613 l 9.08 9.08 C 28.793 18.318 29.074 18.528 29.367 18.712 z" style="stroke: none; stroke-width: 1; stroke-dasharray: none; stroke-linecap: butt; stroke-linejoin: miter; stroke-miterlimit: 10; fill: rgb(155,150,183); fill-rule: nonzero; opacity: 1;" transform=" matrix(1 0 0 1 0 0) " stroke-linecap="round"/>
	<path d="M 85.825 76.975 l -2.515 -2.727 c -4.248 -4.605 -10.277 -7.245 -16.541 -7.245 h 0 v 0.228 c 0 3.113 -0.658 6.072 -1.836 8.75 c 0.564 0.241 1.184 0.375 1.836 0.375 c 3.661 0 7.184 1.544 9.667 4.234 l 2.514 2.726 c 0.922 1 2.178 1.506 3.438 1.506 c 1.134 0 2.271 -0.409 3.169 -1.239 C 87.456 81.832 87.576 78.873 85.825 76.975 z" style="stroke: none; stroke-width: 1; stroke-dasharray: none; stroke-linecap: butt; stroke-linejoin: miter; stroke-miterlimit: 10; fill: rgb(155,150,183); fill-rule: nonzero; opacity: 1;" transform=" matrix(1 0 0 1 0 0) " stroke-linecap="round"/>
	<path d="M 82.387 52.674 H 66.769 h 0 v 9.353 h 0 h 15.618 c 2.582 0 4.676 -2.094 4.676 -4.676 C 87.064 54.768 84.97 52.674 82.387 52.674 z" style="stroke: none; stroke-width: 1; stroke-dasharray: none; stroke-linecap: butt; stroke-linejoin: miter; stroke-miterlimit: 10; fill: rgb(155,150,183); fill-rule: nonzero; opacity: 1;" transform=" matrix(1 0 0 1 0 0) " stroke-linecap="round"/>
	<path d="M 85.557 31.117 c -1.896 -1.75 -4.856 -1.633 -6.608 0.267 l -2.514 2.726 c -2.482 2.691 -6.006 4.235 -9.667 4.235 h 0 v 9.353 h 0 c 6.265 0 12.294 -2.641 16.542 -7.246 l 2.514 -2.726 C 87.576 35.827 87.456 32.869 85.557 31.117 z" style="stroke: none; stroke-width: 1; stroke-dasharray: none; stroke-linecap: butt; stroke-linejoin: miter; stroke-miterlimit: 10; fill: rgb(155,150,183); fill-rule: nonzero; opacity: 1;" transform=" matrix(1 0 0 1 0 0) " stroke-linecap="round"/>
	<path d="M 23.231 67.231 v -0.228 h 0 c -6.264 0 -12.293 2.641 -16.541 7.246 l -2.514 2.726 c -1.751 1.898 -1.632 4.857 0.267 6.608 c 0.899 0.829 2.036 1.239 3.169 1.239 c 1.26 0 2.517 -0.506 3.439 -1.506 l 2.514 -2.725 c 2.483 -2.691 6.006 -4.235 9.667 -4.235 c 0.652 0 1.272 -0.134 1.836 -0.375 C 23.889 73.303 23.231 70.344 23.231 67.231 z" style="stroke: none; stroke-width: 1; stroke-dasharray: none; stroke-linecap: butt; stroke-linejoin: miter; stroke-miterlimit: 10; fill: rgb(155,150,183); fill-rule: nonzero; opacity: 1;" transform=" matrix(1 0 0 1 0 0) " stroke-linecap="round"/>
	<path d="M 23.231 52.674 L 23.231 52.674 H 7.613 c -2.583 0 -4.676 2.094 -4.676 4.676 c 0 2.582 2.094 4.676 4.676 4.676 h 15.618 h 0 V 52.674 z" style="stroke: none; stroke-width: 1; stroke-dasharray: none; stroke-linecap: butt; stroke-linejoin: miter; stroke-miterlimit: 10; fill: rgb(155,150,183); fill-rule: nonzero; opacity: 1;" transform=" matrix(1 0 0 1 0 0) " stroke-linecap="round"/>
	<path d="M 23.231 38.344 L 23.231 38.344 c -3.661 0 -7.184 -1.543 -9.666 -4.234 l -2.514 -2.726 c -1.752 -1.898 -4.708 -2.018 -6.608 -0.267 c -1.899 1.751 -2.018 4.71 -0.267 6.608 l 2.514 2.726 c 4.247 4.605 10.276 7.246 16.541 7.246 h 0 V 38.344 z" style="stroke: none; stroke-width: 1; stroke-dasharray: none; stroke-linecap: butt; stroke-linejoin: miter; stroke-miterlimit: 10; fill: rgb(155,150,183); fill-rule: nonzero; opacity: 1;" transform=" matrix(1 0 0 1 0 0) " stroke-linecap="round"/>
	<path d="M 33.685 30.146 h 22.631 c 2.171 0 4.187 0.662 5.858 1.795 v -6.149 c 0 -9.485 -7.689 -17.173 -17.173 -17.173 s -17.173 7.689 -17.173 17.173 v 6.149 C 29.498 30.809 31.514 30.146 33.685 30.146 z" style="stroke: none; stroke-width: 1; stroke-dasharray: none; stroke-linecap: butt; stroke-linejoin: miter; stroke-miterlimit: 10; fill: rgb(155,150,183); fill-rule: nonzero; opacity: 1;" transform=" matrix(1 0 0 1 0 0) " stroke-linecap="round"/>
	<path d="M 45 90 c -12.555 0 -22.77 -10.215 -22.77 -22.77 V 40.6 c 0 -6.315 5.138 -11.454 11.454 -11.454 h 22.631 c 6.315 0 11.453 5.138 11.453 11.454 v 26.63 C 67.769 79.785 57.555 90 45 90 z M 33.685 31.146 c -5.213 0 -9.454 4.241 -9.454 9.454 v 26.63 C 24.23 78.683 33.548 88 45 88 s 20.769 -9.317 20.769 -20.77 V 40.6 c 0 -5.213 -4.24 -9.454 -9.453 -9.454 H 33.685 z" style="stroke: none; stroke-width: 1; stroke-dasharray: none; stroke-linecap: butt; stroke-linejoin: miter; stroke-miterlimit: 10; fill: rgb(0,0,0); fill-rule: nonzero; opacity: 1;" transform=" matrix(1 0 0 1 0 0) " stroke-linecap="round"/>
	<path d="M 60.633 19.712 c -0.097 0 -0.194 -0.014 -0.288 -0.042 c -0.276 -0.083 -0.503 -0.282 -0.622 -0.544 c -1.225 -2.699 -3.156 -5.006 -5.586 -6.673 c -0.238 -0.164 -0.395 -0.422 -0.428 -0.708 s 0.059 -0.574 0.252 -0.788 c 0.06 -0.08 0.115 -0.149 0.18 -0.213 l 9.079 -9.08 C 64.292 0.59 65.718 0 67.234 0 c 1.516 0 2.941 0.59 4.013 1.662 l 0 0 c 0 0 0 0 0 0 l 0 0 c 1.072 1.072 1.663 2.498 1.663 4.014 c 0.001 1.516 -0.59 2.941 -1.662 4.014 l -9.079 9.08 c -0.287 0.287 -0.616 0.545 -1.005 0.789 C 61.003 19.66 60.818 19.712 60.633 19.712 z M 56.214 11.498 c 1.95 1.534 3.568 3.455 4.755 5.645 l 8.865 -8.866 c 0.694 -0.694 1.076 -1.618 1.076 -2.6 s -0.383 -1.905 -1.077 -2.599 c 0 0 0 0 0 0 c -1.389 -1.389 -3.811 -1.388 -5.199 0 L 56.214 11.498 z" style="stroke: none; stroke-width: 1; stroke-dasharray: none; stroke-linecap: butt; stroke-linejoin: miter; stroke-miterlimit: 10; fill: rgb(0,0,0); fill-rule: nonzero; opacity: 1;" transform=" matrix(1 0 0 1 0 0) " stroke-linecap="round"/>
	<path d="M 29.367 19.712 c -0.187 0 -0.371 -0.052 -0.532 -0.153 c -0.387 -0.243 -0.715 -0.501 -1.002 -0.788 L 18.751 9.69 c -2.213 -2.213 -2.213 -5.814 0 -8.027 c 2.213 -2.213 5.814 -2.213 8.027 0 l 9.08 9.08 c 0.066 0.066 0.12 0.134 0.172 0.203 c 0.194 0.214 0.29 0.506 0.256 0.793 c -0.033 0.287 -0.186 0.55 -0.424 0.714 c -2.43 1.667 -4.361 3.975 -5.586 6.673 c -0.119 0.263 -0.346 0.461 -0.623 0.544 C 29.56 19.698 29.463 19.712 29.367 19.712 z M 22.765 2.002 c -0.941 0 -1.883 0.358 -2.6 1.075 c -1.433 1.434 -1.433 3.766 0 5.199 l 8.866 8.866 c 1.186 -2.188 2.803 -4.109 4.753 -5.643 l -8.42 -8.422 C 24.648 2.36 23.707 2.002 22.765 2.002 z" style="stroke: none; stroke-width: 1; stroke-dasharray: none; stroke-linecap: butt; stroke-linejoin: miter; stroke-miterlimit: 10; fill: rgb(0,0,0); fill-rule: nonzero; opacity: 1;" transform=" matrix(1 0 0 1 0 0) " stroke-linecap="round"/>
	<path d="M 82.388 85.822 c -1.581 0 -3.103 -0.667 -4.173 -1.829 L 75.7 81.268 c -2.294 -2.486 -5.55 -3.912 -8.932 -3.912 c -0.772 0 -1.522 -0.153 -2.229 -0.456 c -0.245 -0.104 -0.438 -0.304 -0.536 -0.552 c -0.099 -0.248 -0.093 -0.525 0.015 -0.77 c 1.161 -2.643 1.75 -5.451 1.75 -8.348 v -0.228 c 0 -0.553 0.447 -1 1 -1 c 6.543 0 12.84 2.759 17.276 7.568 l 2.516 2.727 c 1.027 1.113 1.56 2.562 1.499 4.077 c -0.062 1.515 -0.709 2.915 -1.824 3.943 C 85.185 85.288 83.818 85.822 82.388 85.822 z M 66.283 75.324 c 0.16 0.021 0.322 0.031 0.485 0.031 c 3.938 0 7.73 1.661 10.402 4.557 l 2.515 2.726 c 1.32 1.434 3.759 1.535 5.194 0.21 c 0.722 -0.666 1.141 -1.572 1.181 -2.554 s -0.305 -1.919 -0.971 -2.641 l 0 0 l -2.516 -2.727 c -3.835 -4.158 -9.19 -6.641 -14.819 -6.901 C 67.669 70.538 67.176 72.985 66.283 75.324 z" style="stroke: none; stroke-width: 1; stroke-dasharray: none; stroke-linecap: butt; stroke-linejoin: miter; stroke-miterlimit: 10; fill: rgb(0,0,0); fill-rule: nonzero; opacity: 1;" transform=" matrix(1 0 0 1 0 0) " stroke-linecap="round"/>
	<path d="M 82.388 63.026 H 66.769 c -0.553 0 -1 -0.447 -1 -1 v -9.353 c 0 -0.553 0.447 -1 1 -1 h 15.619 c 3.13 0 5.676 2.546 5.676 5.676 S 85.518 63.026 82.388 63.026 z M 67.769 61.026 h 14.619 c 2.026 0 3.676 -1.649 3.676 -3.677 c 0 -2.026 -1.649 -3.676 -3.676 -3.676 H 67.769 V 61.026 z" style="stroke: none; stroke-width: 1; stroke-dasharray: none; stroke-linecap: butt; stroke-linejoin: miter; stroke-miterlimit: 10; fill: rgb(0,0,0); fill-rule: nonzero; opacity: 1;" transform=" matrix(1 0 0 1 0 0) " stroke-linecap="round"/>
	<path d="M 66.769 48.697 c -0.553 0 -1 -0.447 -1 -1 v -9.353 c 0 -0.552 0.447 -1 1 -1 c 3.383 0 6.639 -1.426 8.932 -3.913 l 2.515 -2.726 c 1.028 -1.115 2.43 -1.762 3.944 -1.823 c 1.521 -0.06 2.963 0.472 4.076 1.5 l 0 0 c 2.301 2.123 2.446 5.721 0.325 8.021 l -2.515 2.726 C 79.608 45.939 73.312 48.697 66.769 48.697 z M 67.769 39.309 v 7.365 c 5.624 -0.264 10.974 -2.746 14.807 -6.9 l 2.515 -2.726 c 1.374 -1.49 1.28 -3.82 -0.21 -5.195 c -0.722 -0.665 -1.669 -1.017 -2.64 -0.971 c -0.981 0.04 -1.889 0.459 -2.555 1.181 l -2.515 2.726 C 74.727 37.438 71.345 39.054 67.769 39.309 z" style="stroke: none; stroke-width: 1; stroke-dasharray: none; stroke-linecap: butt; stroke-linejoin: miter; stroke-miterlimit: 10; fill: rgb(0,0,0); fill-rule: nonzero; opacity: 1;" transform=" matrix(1 0 0 1 0 0) " stroke-linecap="round"/>
	<path d="M 7.611 85.822 c -1.429 0 -2.795 -0.534 -3.847 -1.504 C 2.65 83.29 2.002 81.89 1.941 80.375 c -0.061 -1.516 0.471 -2.964 1.5 -4.077 l 2.514 -2.727 c 4.438 -4.81 10.734 -7.568 17.276 -7.568 c 0.552 0 1 0.447 1 1 v 0.228 c 0 2.896 0.589 5.705 1.751 8.348 c 0.107 0.244 0.113 0.521 0.015 0.77 s -0.292 0.447 -0.537 0.552 c -0.707 0.303 -1.457 0.456 -2.229 0.456 c -3.382 0 -6.637 1.427 -8.932 3.913 l -2.514 2.725 C 10.714 85.155 9.192 85.822 7.611 85.822 z M 22.244 68.025 c -5.628 0.261 -10.983 2.743 -14.82 6.901 l -2.514 2.727 c -0.666 0.722 -1.011 1.659 -0.971 2.641 s 0.459 1.889 1.181 2.554 c 1.436 1.325 3.875 1.223 5.195 -0.21 l 2.514 -2.725 c 2.672 -2.896 6.463 -4.558 10.401 -4.558 c 0.164 0 0.326 -0.011 0.486 -0.031 C 22.824 72.985 22.33 70.538 22.244 68.025 z" style="stroke: none; stroke-width: 1; stroke-dasharray: none; stroke-linecap: butt; stroke-linejoin: miter; stroke-miterlimit: 10; fill: rgb(0,0,0); fill-rule: nonzero; opacity: 1;" transform=" matrix(1 0 0 1 0 0) " stroke-linecap="round"/>
	<path d="M 23.23 63.026 H 7.613 c -3.13 0 -5.676 -2.547 -5.676 -5.677 s 2.546 -5.676 5.676 -5.676 H 23.23 c 0.552 0 1 0.447 1 1 v 9.353 C 24.23 62.579 23.783 63.026 23.23 63.026 z M 7.613 53.674 c -2.027 0 -3.676 1.649 -3.676 3.676 c 0 2.027 1.649 3.677 3.676 3.677 H 22.23 v -7.353 H 7.613 z" style="stroke: none; stroke-width: 1; stroke-dasharray: none; stroke-linecap: butt; stroke-linejoin: miter; stroke-miterlimit: 10; fill: rgb(0,0,0); fill-rule: nonzero; opacity: 1;" transform=" matrix(1 0 0 1 0 0) " stroke-linecap="round"/>
	<path d="M 23.23 48.697 c -6.542 0 -12.839 -2.758 -17.276 -7.567 L 3.44 38.403 c -2.123 -2.301 -1.977 -5.899 0.324 -8.021 c 2.301 -2.122 5.899 -1.976 8.021 0.324 l 2.514 2.727 c 2.293 2.486 5.549 3.912 8.931 3.912 c 0.552 0 1 0.448 1 1 v 9.353 C 24.23 48.25 23.783 48.697 23.23 48.697 z M 7.611 30.881 c -0.892 0 -1.786 0.321 -2.491 0.972 c -1.49 1.374 -1.584 3.705 -0.21 5.195 l 2.514 2.726 c 3.833 4.154 9.183 6.635 14.806 6.9 v -7.365 c -3.575 -0.255 -6.957 -1.871 -9.401 -4.521 l -2.514 -2.727 C 9.592 31.278 8.603 30.881 7.611 30.881 z" style="stroke: none; stroke-width: 1; stroke-dasharray: none; stroke-linecap: butt; stroke-linejoin: miter; stroke-miterlimit: 10; fill: rgb(0,0,0); fill-rule: nonzero; opacity: 1;" transform=" matrix(1 0 0 1 0 0) " stroke-linecap="round"/>
	<path d="M 62.173 32.941 c -0.196 0 -0.393 -0.058 -0.562 -0.172 c -1.565 -1.062 -3.396 -1.623 -5.296 -1.623 H 33.685 c -1.899 0 -3.731 0.561 -5.297 1.623 c -0.306 0.208 -0.703 0.229 -1.029 0.056 c -0.327 -0.173 -0.532 -0.513 -0.532 -0.883 v -6.149 c 0 -10.021 8.153 -18.173 18.174 -18.173 c 10.021 0 18.173 8.152 18.173 18.173 v 6.149 c 0 0.37 -0.204 0.71 -0.531 0.883 C 62.494 32.903 62.333 32.941 62.173 32.941 z M 45 9.619 c -8.918 0 -16.174 7.255 -16.174 16.173 v 4.433 c 1.511 -0.709 3.163 -1.079 4.858 -1.079 h 22.631 c 1.695 0 3.347 0.369 4.857 1.079 v -4.433 C 61.173 16.875 53.918 9.619 45 9.619 z" style="stroke: none; stroke-width: 1; stroke-dasharray: none; stroke-linecap: butt; stroke-linejoin: miter; stroke-miterlimit: 10; fill: rgb(0,0,0); fill-rule: nonzero; opacity: 1;" transform=" matrix(1 0 0 1 0 0) " stroke-linecap="round"/>
	<path d="M 60.807 58.807 L 48.949 39.507 c -1.809 -2.945 -6.089 -2.945 -7.899 0 L 29.193 58.807 c -1.897 3.088 0.325 7.062 3.949 7.062 h 23.715 C 60.482 65.868 62.704 61.895 60.807 58.807 z" style="stroke: none; stroke-width: 1; stroke-dasharray: none; stroke-linecap: butt; stroke-linejoin: miter; stroke-miterlimit: 10; fill: rgb(255,188,0); fill-rule: nonzero; opacity: 1;" transform=" matrix(1 0 0 1 0 0) " stroke-linecap="round"/>
	<path d="M 56.857 66.868 H 33.143 c -2.069 0 -3.908 -1.078 -4.918 -2.885 c -1.01 -1.807 -0.966 -3.938 0.117 -5.7 l 11.857 -19.299 c 1.033 -1.682 2.828 -2.686 4.801 -2.686 s 3.768 1.004 4.801 2.686 l 11.857 19.299 c 1.084 1.763 1.128 3.894 0.117 5.7 C 60.766 65.79 58.927 66.868 56.857 66.868 z M 45 38.298 c -1.273 0 -2.43 0.647 -3.097 1.732 L 30.045 59.33 c -0.699 1.138 -0.727 2.512 -0.076 3.678 c 0.652 1.165 1.838 1.86 3.173 1.86 h 23.715 c 1.335 0 2.521 -0.695 3.173 -1.86 c 0.651 -1.166 0.623 -2.54 -0.075 -3.678 l 0 0 L 48.098 40.031 C 47.431 38.946 46.272 38.298 45 38.298 z" style="stroke: none; stroke-width: 1; stroke-dasharray: none; stroke-linecap: butt; stroke-linejoin: miter; stroke-miterlimit: 10; fill: rgb(0,0,0); fill-rule: nonzero; opacity: 1;" transform=" matrix(1 0 0 1 0 0) " stroke-linecap="round"/>
	<path d="M 45.614 52.728 h -1.228 c -1.127 0 -2.04 -0.913 -2.04 -2.04 V 45.99 c 0 -1.127 0.913 -2.04 2.04 -2.04 h 1.228 c 1.127 0 2.04 0.913 2.04 2.04 v 4.698 C 47.654 51.815 46.74 52.728 45.614 52.728 z" style="stroke: none; stroke-width: 1; stroke-dasharray: none; stroke-linecap: butt; stroke-linejoin: miter; stroke-miterlimit: 10; fill: rgb(225,17,38); fill-rule: nonzero; opacity: 1;" transform=" matrix(1 0 0 1 0 0) " stroke-linecap="round"/>
	<path d="M 45.614 56.761 h -1.228 c -1.127 0 -2.04 0.913 -2.04 2.04 v 0 c 0 1.127 0.913 2.04 2.04 2.04 h 1.228 c 1.127 0 2.04 -0.913 2.04 -2.04 v 0 C 47.654 57.675 46.74 56.761 45.614 56.761 z" style="stroke: none; stroke-width: 1; stroke-dasharray: none; stroke-linecap: butt; stroke-linejoin: miter; stroke-miterlimit: 10; fill: rgb(225,17,38); fill-rule: nonzero; opacity: 1;" transform=" matrix(1 0 0 1 0 0) " stroke-linecap="round"/>
	<path d="M 45.614 61.841 h -1.228 c -1.676 0 -3.04 -1.363 -3.04 -3.04 c 0 -1.676 1.364 -3.039 3.04 -3.039 h 1.228 c 1.676 0 3.04 1.363 3.04 3.039 C 48.653 60.478 47.29 61.841 45.614 61.841 z M 44.386 57.762 c -0.573 0 -1.04 0.466 -1.04 1.039 s 0.467 1.04 1.04 1.04 h 1.228 c 0.573 0 1.04 -0.467 1.04 -1.04 s -0.467 -1.039 -1.04 -1.039 H 44.386 z" style="stroke: none; stroke-width: 1; stroke-dasharray: none; stroke-linecap: butt; stroke-linejoin: miter; stroke-miterlimit: 10; fill: rgb(0,0,0); fill-rule: nonzero; opacity: 1;" transform=" matrix(1 0 0 1 0 0) " stroke-linecap="round"/>
	<path d="M 45.614 53.728 h -1.228 c -1.676 0 -3.04 -1.363 -3.04 -3.039 V 45.99 c 0 -1.676 1.364 -3.04 3.04 -3.04 h 1.228 c 1.676 0 3.04 1.364 3.04 3.04 v 4.698 C 48.653 52.364 47.29 53.728 45.614 53.728 z M 44.386 44.95 c -0.573 0 -1.04 0.467 -1.04 1.04 v 4.698 c 0 0.573 0.467 1.039 1.04 1.039 h 1.228 c 0.573 0 1.04 -0.466 1.04 -1.039 V 45.99 c 0 -0.573 -0.467 -1.04 -1.04 -1.04 H 44.386 z" style="stroke: none; stroke-width: 1; stroke-dasharray: none; stroke-linecap: butt; stroke-linejoin: miter; stroke-miterlimit: 10; fill: rgb(0,0,0); fill-rule: nonzero; opacity: 1;" transform=" matrix(1 0 0 1 0 0) " stroke-linecap="round"/>
</g>
</svg>