<svg xmlns="http://www.w3.org/2000/svg" xmlns:xlink="http://www.w3.org/1999/xlink" version="1.1" width="256" height="256" viewBox="0 0 256 256" xml:space="preserve">
<g style="stroke: none; stroke-width: 0; stroke-dasharray: none; stroke-linecap: butt; stroke-linejoin: miter; stroke-miterlimit: 10; fill: none; fill-rule: nonzero; opacity: 1;" transform="translate(0 -2.842170943040401e-14) scale(2.81 2.81)">
	<circle cx="45" cy="45" r="45" style="stroke: none; stroke-width: 1; stroke-dasharray: none; stroke-linecap: butt; stroke-linejoin: miter; stroke-miterlimit: 10; fill: rgb(0,0,0); fill-rule: nonzero; opacity: 1;" transform="  matrix(1 0 0 1 0 0) "/>
</g>
<g style="stroke: none; stroke-width: 0; stroke-dasharray: none; stroke-linecap: butt; stroke-linejoin: miter; stroke-miterlimit: 10; fill: none; fill-rule: nonzero; opacity: 1;" transform="translate(46.17984832069338 46.17984832069335) scale(1.82 1.82)">
	<path d="M 29.48 14.009 c -0.958 0.962 -2.296 1.31 -3.531 1.05 l -0.313 0.436 c -0.621 0.864 -1.06 1.845 -1.291 2.883 v 0 c -0.662 2.979 -2.988 5.305 -5.967 5.967 l 0 0 c -1.039 0.231 -2.02 0.67 -2.883 1.291 l -0.436 0.313 c 0.26 1.235 -0.088 2.573 -1.05 3.531 c -1.453 1.447 -3.88 1.481 -5.37 0.071 c -1.584 -1.499 -1.611 -3.999 -0.079 -5.531 c 1.06 -1.06 2.584 -1.371 3.919 -0.938 l 10.603 -10.603 c -0.433 -1.335 -0.122 -2.858 0.938 -3.919 c 1.532 -1.532 4.032 -1.506 5.531 0.079 C 30.961 10.129 30.927 12.556 29.48 14.009 z" style="stroke: none; stroke-width: 1; stroke-dasharray: none; stroke-linecap: butt; stroke-linejoin: miter; stroke-miterlimit: 10; fill: rgb(250,159,21); fill-rule: nonzero; opacity: 1;" transform=" matrix(1 0 0 1 0 0) " stroke-linecap="round"/>
	<path d="M 24.193 18.886 L 85.63 80.323 L 89 89 l -8.677 -3.37 L 18.886 24.193 C 21.445 23.439 23.439 21.445 24.193 18.886 z" style="stroke: none; stroke-width: 1; stroke-dasharray: none; stroke-linecap: butt; stroke-linejoin: miter; stroke-miterlimit: 10; fill: rgb(209,230,237); fill-rule: nonzero; opacity: 1;" transform=" matrix(1 0 0 1 0 0) " stroke-linecap="round"/>
	<circle cx="5.509" cy="5.509" r="4.509" style="stroke: none; stroke-width: 1; stroke-dasharray: none; stroke-linecap: butt; stroke-linejoin: miter; stroke-miterlimit: 10; fill: rgb(250,159,21); fill-rule: nonzero; opacity: 1;" transform="  matrix(1 0 0 1 0 0) "/>
	<path d="M 8.697 8.697 c 0.887 -0.887 1.325 -2.052 1.318 -3.215 l 10.429 9.634 l -5.328 5.328 L 5.483 10.016 C 6.646 10.022 7.81 9.585 8.697 8.697 z" style="stroke: none; stroke-width: 1; stroke-dasharray: none; stroke-linecap: butt; stroke-linejoin: miter; stroke-miterlimit: 10; fill: rgb(255,51,0); fill-rule: nonzero; opacity: 1;" transform=" matrix(1 0 0 1 0 0) " stroke-linecap="round"/>
	<path d="M 60.52 14.009 c 0.958 0.962 2.296 1.31 3.531 1.05 l 0.313 0.436 c 0.621 0.864 1.06 1.845 1.291 2.883 v 0 c 0.662 2.979 2.988 5.305 5.967 5.967 l 0 0 c 1.039 0.231 2.02 0.67 2.883 1.291 l 0.436 0.313 c -0.26 1.235 0.088 2.573 1.05 3.531 c 1.453 1.447 3.88 1.481 5.37 0.071 c 1.584 -1.499 1.611 -3.999 0.079 -5.531 c -1.06 -1.06 -2.584 -1.371 -3.919 -0.938 L 66.918 12.479 c 0.433 -1.335 0.122 -2.858 -0.938 -3.919 c -1.532 -1.532 -4.032 -1.506 -5.531 0.079 C 59.039 10.129 59.073 12.556 60.52 14.009 z" style="stroke: none; stroke-width: 1; stroke-dasharray: none; stroke-linecap: butt; stroke-linejoin: miter; stroke-miterlimit: 10; fill: rgb(250,159,21); fill-rule: nonzero; opacity: 1;" transform=" matrix(1 0 0 1 0 0) " stroke-linecap="round"/>
	<path d="M 65.807 18.886 L 4.37 80.323 L 1 89 l 8.677 -3.37 l 61.438 -61.438 C 68.555 23.439 66.561 21.445 65.807 18.886 z" style="stroke: none; stroke-width: 1; stroke-dasharray: none; stroke-linecap: butt; stroke-linejoin: miter; stroke-miterlimit: 10; fill: rgb(209,230,237); fill-rule: nonzero; opacity: 1;" transform=" matrix(1 0 0 1 0 0) " stroke-linecap="round"/>
	<circle cx="84.489" cy="5.509" r="4.509" style="stroke: none; stroke-width: 1; stroke-dasharray: none; stroke-linecap: butt; stroke-linejoin: miter; stroke-miterlimit: 10; fill: rgb(250,159,21); fill-rule: nonzero; opacity: 1;" transform="  matrix(1 0 0 1 0 0) "/>
	<path d="M 81.303 8.697 c -0.887 -0.887 -1.325 -2.052 -1.318 -3.215 l -10.429 9.634 l 5.328 5.328 l 9.634 -10.429 C 83.354 10.022 82.19 9.585 81.303 8.697 z" style="stroke: none; stroke-width: 1; stroke-dasharray: none; stroke-linecap: butt; stroke-linejoin: miter; stroke-miterlimit: 10; fill: rgb(255,51,0); fill-rule: nonzero; opacity: 1;" transform=" matrix(1 0 0 1 0 0) " stroke-linecap="round"/>
	<path d="M 11.285 31.591 c -1.203 0 -2.406 -0.437 -3.333 -1.313 c -0.963 -0.911 -1.503 -2.141 -1.521 -3.463 s 0.487 -2.566 1.422 -3.501 c 1.144 -1.145 2.75 -1.633 4.319 -1.339 l 9.801 -9.801 c -0.293 -1.565 0.194 -3.175 1.339 -4.319 c 0.935 -0.935 2.194 -1.441 3.501 -1.422 c 1.323 0.018 2.553 0.558 3.463 1.521 c 1.785 1.887 1.745 4.92 -0.089 6.762 c -1.004 1.009 -2.387 1.516 -3.778 1.417 c -0.525 0.745 -0.892 1.574 -1.089 2.463 c -0.743 3.343 -3.383 5.983 -6.726 6.727 c -0.89 0.197 -1.718 0.564 -2.464 1.089 c 0.099 1.399 -0.407 2.774 -1.417 3.778 C 13.777 31.122 12.531 31.591 11.285 31.591 z M 11.28 23.892 c -0.744 0 -1.468 0.292 -2.012 0.836 c -0.55 0.55 -0.847 1.282 -0.836 2.06 s 0.329 1.501 0.895 2.038 c 1.092 1.032 2.912 1.008 3.977 -0.053 c 0.688 -0.685 0.978 -1.662 0.777 -2.616 c -0.082 -0.387 0.073 -0.787 0.395 -1.018 l 0.436 -0.313 c 0.981 -0.705 2.075 -1.195 3.251 -1.456 c 2.587 -0.575 4.632 -2.62 5.207 -5.208 c 0.261 -1.176 0.75 -2.27 1.455 -3.25 l 0.314 -0.436 c 0.231 -0.321 0.631 -0.477 1.018 -0.395 c 0.954 0.201 1.932 -0.089 2.616 -0.777 l 0 0 c 1.061 -1.065 1.085 -2.886 0.053 -3.977 c -0.536 -0.566 -1.26 -0.884 -2.038 -0.895 c -0.804 -0.045 -1.51 0.286 -2.06 0.836 c -0.762 0.762 -1.028 1.874 -0.694 2.903 c 0.116 0.357 0.021 0.75 -0.244 1.015 L 13.186 23.789 c -0.266 0.266 -0.659 0.36 -1.015 0.244 C 11.877 23.938 11.577 23.892 11.28 23.892 z" style="stroke: none; stroke-width: 1; stroke-dasharray: none; stroke-linecap: butt; stroke-linejoin: miter; stroke-miterlimit: 10; fill: rgb(0,0,0); fill-rule: nonzero; opacity: 1;" transform=" matrix(1 0 0 1 0 0) " stroke-linecap="round"/>
	<path d="M 89 90 c -0.122 0 -0.244 -0.022 -0.362 -0.067 l -8.677 -3.37 c -0.129 -0.051 -0.247 -0.127 -0.345 -0.226 L 18.179 24.9 c -0.25 -0.25 -0.349 -0.612 -0.262 -0.954 c 0.087 -0.342 0.348 -0.613 0.687 -0.712 c 2.24 -0.659 3.971 -2.39 4.63 -4.63 c 0.1 -0.339 0.371 -0.6 0.712 -0.687 c 0.342 -0.085 0.704 0.012 0.954 0.262 l 61.437 61.438 c 0.099 0.098 0.175 0.216 0.226 0.345 l 3.37 8.677 c 0.143 0.37 0.055 0.789 -0.226 1.069 C 89.516 89.898 89.261 90 89 90 z M 80.882 84.774 l 6.364 2.472 l -2.472 -6.364 L 24.56 20.667 c -0.849 1.683 -2.21 3.044 -3.893 3.893 L 80.882 84.774 z" style="stroke: none; stroke-width: 1; stroke-dasharray: none; stroke-linecap: butt; stroke-linejoin: miter; stroke-miterlimit: 10; fill: rgb(0,0,0); fill-rule: nonzero; opacity: 1;" transform=" matrix(1 0 0 1 0 0) " stroke-linecap="round"/>
	<path d="M 5.509 11.018 c -1.471 0 -2.854 -0.573 -3.895 -1.614 S 0 6.98 0 5.509 c 0 -1.471 0.573 -2.854 1.614 -3.895 S 4.038 0 5.509 0 C 6.98 0 8.364 0.573 9.404 1.614 l 0 0 l 0 0 c 1.041 1.041 1.614 2.424 1.614 3.895 c 0 1.472 -0.573 2.855 -1.614 3.896 S 6.98 11.018 5.509 11.018 z M 5.509 2 C 4.572 2 3.691 2.365 3.028 3.028 S 2 4.572 2 5.509 C 2 6.446 2.365 7.327 3.028 7.99 c 1.327 1.326 3.637 1.326 4.962 0 c 0.663 -0.663 1.028 -1.544 1.028 -2.481 c 0 -0.937 -0.365 -1.818 -1.028 -2.481 l 0 0 C 7.327 2.365 6.446 2 5.509 2 z" style="stroke: none; stroke-width: 1; stroke-dasharray: none; stroke-linecap: butt; stroke-linejoin: miter; stroke-miterlimit: 10; fill: rgb(0,0,0); fill-rule: nonzero; opacity: 1;" transform=" matrix(1 0 0 1 0 0) " stroke-linecap="round"/>
	<path d="M 15.117 21.445 c -0.006 0 -0.013 0 -0.02 0 c -0.272 -0.005 -0.53 -0.122 -0.714 -0.321 L 4.749 10.694 c -0.271 -0.293 -0.341 -0.718 -0.181 -1.083 c 0.161 -0.364 0.537 -0.627 0.921 -0.596 c 0.007 0 0.014 0 0.021 0 c 0.938 0 1.818 -0.364 2.479 -1.025 c 0 0 0 0 0 0 c 0.667 -0.666 1.031 -1.554 1.025 -2.501 C 9.013 5.09 9.248 4.729 9.612 4.568 c 0.365 -0.16 0.789 -0.09 1.083 0.181 l 10.429 9.634 c 0.2 0.185 0.316 0.442 0.321 0.714 c 0.005 0.272 -0.101 0.535 -0.293 0.727 l -5.328 5.328 C 15.636 21.34 15.382 21.445 15.117 21.445 z M 7.447 10.668 l 7.699 8.334 l 3.856 -3.856 l -8.334 -7.699 C 10.396 8.174 9.97 8.839 9.405 9.404 l 0 0 c 0 0 0 0 0 0 s 0 0 0 0 C 8.839 9.97 8.173 10.396 7.447 10.668 z" style="stroke: none; stroke-width: 1; stroke-dasharray: none; stroke-linecap: butt; stroke-linejoin: miter; stroke-miterlimit: 10; fill: rgb(0,0,0); fill-rule: nonzero; opacity: 1;" transform=" matrix(1 0 0 1 0 0) " stroke-linecap="round"/>
	<path d="M 78.715 31.591 c -1.246 0 -2.492 -0.469 -3.43 -1.402 c -1.008 -1.004 -1.515 -2.379 -1.416 -3.778 c -0.745 -0.525 -1.574 -0.892 -2.464 -1.089 c -3.343 -0.743 -5.983 -3.383 -6.727 -6.726 c -0.197 -0.89 -0.563 -1.718 -1.089 -2.464 c -1.393 0.094 -2.773 -0.407 -3.779 -1.417 c -1.834 -1.842 -1.874 -4.875 -0.088 -6.763 c 0.91 -0.962 2.139 -1.502 3.461 -1.521 c 1.317 -0.024 2.567 0.486 3.503 1.422 c 1.146 1.145 1.633 2.754 1.339 4.319 l 9.802 9.801 c 1.557 -0.293 3.173 0.193 4.319 1.339 c 0.936 0.935 1.44 2.178 1.422 3.501 c -0.018 1.323 -0.558 2.553 -1.52 3.463 C 81.121 31.154 79.918 31.591 78.715 31.591 z M 64.051 14.059 c 0.317 0 0.621 0.151 0.812 0.416 l 0.313 0.436 c 0.705 0.981 1.194 2.075 1.456 3.251 c 0.575 2.587 2.619 4.632 5.207 5.207 c 1.177 0.261 2.271 0.75 3.251 1.455 l 0.436 0.314 c 0.321 0.231 0.476 0.63 0.395 1.017 c -0.2 0.955 0.09 1.933 0.776 2.617 c 1.066 1.061 2.887 1.084 3.978 0.053 c 0.566 -0.536 0.885 -1.26 0.896 -2.038 s -0.287 -1.509 -0.837 -2.06 c -0.762 -0.762 -1.874 -1.028 -2.903 -0.694 c -0.356 0.115 -0.75 0.022 -1.016 -0.244 L 66.211 13.186 c -0.266 -0.266 -0.36 -0.658 -0.244 -1.015 c 0.333 -1.029 0.067 -2.142 -0.694 -2.903 c -0.551 -0.55 -1.275 -0.864 -2.061 -0.836 c -0.777 0.011 -1.501 0.329 -2.036 0.895 c -1.032 1.091 -1.009 2.912 0.053 3.977 l 0 0 c 0.684 0.688 1.661 0.977 2.616 0.777 C 63.913 14.065 63.982 14.059 64.051 14.059 z" style="stroke: none; stroke-width: 1; stroke-dasharray: none; stroke-linecap: butt; stroke-linejoin: miter; stroke-miterlimit: 10; fill: rgb(0,0,0); fill-rule: nonzero; opacity: 1;" transform=" matrix(1 0 0 1 0 0) " stroke-linecap="round"/>
	<path d="M 1 90 c -0.26 0 -0.516 -0.102 -0.707 -0.293 c -0.28 -0.28 -0.369 -0.699 -0.225 -1.069 l 3.37 -8.677 c 0.05 -0.129 0.127 -0.247 0.225 -0.345 l 61.438 -61.438 c 0.249 -0.25 0.61 -0.347 0.954 -0.262 c 0.342 0.087 0.612 0.349 0.712 0.687 c 0.659 2.24 2.39 3.971 4.63 4.63 c 0.339 0.1 0.6 0.371 0.687 0.712 c 0.088 0.342 -0.012 0.705 -0.262 0.954 L 10.384 86.337 c -0.098 0.099 -0.216 0.175 -0.345 0.226 l -8.677 3.37 C 1.245 89.978 1.122 90 1 90 z M 5.226 80.882 l -2.472 6.364 l 6.365 -2.472 L 69.333 24.56 c -1.683 -0.849 -3.044 -2.209 -3.893 -3.893 L 5.226 80.882 z" style="stroke: none; stroke-width: 1; stroke-dasharray: none; stroke-linecap: butt; stroke-linejoin: miter; stroke-miterlimit: 10; fill: rgb(0,0,0); fill-rule: nonzero; opacity: 1;" transform=" matrix(1 0 0 1 0 0) " stroke-linecap="round"/>
	<path d="M 84.491 11.018 c -1.472 0 -2.855 -0.573 -3.896 -1.614 c -2.147 -2.147 -2.147 -5.643 0 -7.791 l 0 0 l 0 0 C 81.636 0.573 83.02 0 84.491 0 c 1.471 0 2.854 0.573 3.896 1.614 c 2.148 2.148 2.148 5.643 0 7.791 C 87.346 10.445 85.962 11.018 84.491 11.018 z M 84.491 2 c -0.938 0 -1.818 0.365 -2.481 1.028 l 0 0 c -1.368 1.368 -1.368 3.594 0 4.962 c 1.326 1.326 3.637 1.327 4.963 0 c 1.368 -1.368 1.368 -3.594 0 -4.962 C 86.31 2.365 85.428 2 84.491 2 z M 81.303 2.321 h 0.01 H 81.303 z" style="stroke: none; stroke-width: 1; stroke-dasharray: none; stroke-linecap: butt; stroke-linejoin: miter; stroke-miterlimit: 10; fill: rgb(0,0,0); fill-rule: nonzero; opacity: 1;" transform=" matrix(1 0 0 1 0 0) " stroke-linecap="round"/>
	<path d="M 74.884 21.445 c -0.265 0 -0.52 -0.105 -0.707 -0.293 l -5.328 -5.328 c -0.192 -0.192 -0.298 -0.455 -0.293 -0.727 c 0.006 -0.272 0.122 -0.53 0.321 -0.714 l 10.429 -9.634 c 0.293 -0.271 0.717 -0.342 1.082 -0.181 c 0.364 0.161 0.599 0.522 0.597 0.921 c -0.006 0.947 0.358 1.835 1.025 2.501 v 0 c 0.666 0.667 1.556 1.03 2.502 1.025 c 0.41 0.003 0.76 0.232 0.921 0.596 c 0.161 0.365 0.09 0.79 -0.181 1.083 l -9.634 10.429 c -0.185 0.2 -0.442 0.316 -0.715 0.321 C 74.897 21.445 74.891 21.445 74.884 21.445 z M 70.998 15.146 l 3.857 3.856 l 7.698 -8.333 c -0.728 -0.272 -1.394 -0.699 -1.958 -1.264 c -0.565 -0.565 -0.992 -1.23 -1.264 -1.957 L 70.998 15.146 z" style="stroke: none; stroke-width: 1; stroke-dasharray: none; stroke-linecap: butt; stroke-linejoin: miter; stroke-miterlimit: 10; fill: rgb(0,0,0); fill-rule: nonzero; opacity: 1;" transform=" matrix(1 0 0 1 0 0) " stroke-linecap="round"/>
	<path d="M 45 89 c 18.312 -7.3 27.468 -14.6 27.468 -54.441 C 62.157 32.043 53.001 27.96 45 22.31 c -8.001 5.65 -17.157 9.733 -27.468 12.249 C 17.532 74.4 26.688 81.7 45 89 z" style="stroke: none; stroke-width: 1; stroke-dasharray: none; stroke-linecap: butt; stroke-linejoin: miter; stroke-miterlimit: 10; fill: rgb(175,1,1); fill-rule: nonzero; opacity: 1;" transform=" matrix(1 0 0 1 0 0) " stroke-linecap="round"/>
	<path d="M 45 79.587 c 13.143 -5.239 19.714 -10.479 19.714 -39.072 c -7.4 -1.806 -13.971 -4.736 -19.714 -8.791 c -5.742 4.055 -12.314 6.986 -19.714 8.791 C 25.286 69.108 31.857 74.348 45 79.587 z" style="stroke: none; stroke-width: 1; stroke-dasharray: none; stroke-linecap: butt; stroke-linejoin: miter; stroke-miterlimit: 10; fill: rgb(250,159,21); fill-rule: nonzero; opacity: 1;" transform=" matrix(1 0 0 1 0 0) " stroke-linecap="round"/>
	<path d="M 45 90 c -0.125 0 -0.251 -0.023 -0.37 -0.071 c -19.1 -7.613 -28.098 -15.558 -28.098 -55.37 c 0 -0.461 0.315 -0.862 0.763 -0.972 c 10.14 -2.474 19.267 -6.543 27.128 -12.094 c 0.346 -0.244 0.808 -0.244 1.153 0 c 7.861 5.551 16.988 9.62 27.128 12.094 c 0.447 0.109 0.763 0.511 0.763 0.972 c 0 39.812 -8.998 47.756 -28.098 55.37 C 45.251 89.977 45.125 90 45 90 z M 18.533 35.341 C 18.643 73.165 26.728 80.585 45 87.923 c 18.272 -7.339 26.357 -14.759 26.467 -52.582 C 61.632 32.853 52.734 28.882 45 23.53 C 37.265 28.882 28.368 32.853 18.533 35.341 z" style="stroke: none; stroke-width: 1; stroke-dasharray: none; stroke-linecap: butt; stroke-linejoin: miter; stroke-miterlimit: 10; fill: rgb(0,0,0); fill-rule: nonzero; opacity: 1;" transform=" matrix(1 0 0 1 0 0) " stroke-linecap="round"/>
	<path d="M 45 80.587 c -0.125 0 -0.251 -0.023 -0.37 -0.071 C 30.801 75.003 24.286 69.26 24.286 40.515 c 0 -0.461 0.315 -0.862 0.763 -0.972 c 7.242 -1.767 13.76 -4.673 19.374 -8.637 c 0.346 -0.244 0.808 -0.244 1.153 0 c 5.613 3.964 12.131 6.87 19.375 8.637 c 0.447 0.109 0.763 0.511 0.763 0.972 c 0 28.745 -6.515 34.488 -20.344 40.001 C 45.251 80.563 45.125 80.587 45 80.587 z M 26.288 41.295 C 26.396 68.008 32.117 73.319 45 78.51 c 12.883 -5.19 18.604 -10.502 18.712 -37.215 c -6.938 -1.78 -13.227 -4.587 -18.712 -8.353 C 39.514 36.708 33.225 39.515 26.288 41.295 z" style="stroke: none; stroke-width: 1; stroke-dasharray: none; stroke-linecap: butt; stroke-linejoin: miter; stroke-miterlimit: 10; fill: rgb(0,0,0); fill-rule: nonzero; opacity: 1;" transform=" matrix(1 0 0 1 0 0) " stroke-linecap="round"/>
	<polygon points="45,43.62 48.29,50.57 55.91,51.55 50.32,56.82 51.74,64.38 45,60.69 38.26,64.38 39.68,56.82 34.09,51.55 41.71,50.57 " style="stroke: none; stroke-width: 1; stroke-dasharray: none; stroke-linecap: butt; stroke-linejoin: miter; stroke-miterlimit: 10; fill: rgb(255,51,0); fill-rule: nonzero; opacity: 1;" transform="  matrix(1 0 0 1 0 0) "/>
	<path d="M 51.743 65.376 c -0.164 0 -0.329 -0.04 -0.479 -0.122 L 45 61.83 l -6.263 3.424 c -0.338 0.186 -0.755 0.158 -1.067 -0.069 c -0.312 -0.227 -0.466 -0.613 -0.395 -0.993 l 1.32 -7.015 l -5.191 -4.898 c -0.281 -0.266 -0.384 -0.669 -0.265 -1.036 c 0.12 -0.368 0.44 -0.634 0.823 -0.684 l 7.079 -0.912 l 3.055 -6.451 c 0.166 -0.349 0.518 -0.572 0.904 -0.572 s 0.738 0.223 0.904 0.572 l 3.055 6.451 l 7.079 0.912 c 0.383 0.05 0.704 0.315 0.823 0.684 c 0.119 0.367 0.017 0.771 -0.265 1.036 l -5.191 4.898 l 1.32 7.015 c 0.072 0.379 -0.082 0.767 -0.395 0.993 C 52.156 65.312 51.95 65.376 51.743 65.376 z M 45 59.69 c 0.165 0 0.33 0.041 0.479 0.122 l 4.891 2.673 l -1.031 -5.477 c -0.063 -0.334 0.049 -0.678 0.296 -0.912 l 4.054 -3.824 l -5.527 -0.712 c -0.338 -0.044 -0.63 -0.257 -0.775 -0.564 L 45 45.96 l -2.385 5.036 c -0.146 0.308 -0.438 0.521 -0.776 0.564 l -5.527 0.712 l 4.053 3.824 c 0.248 0.234 0.36 0.578 0.297 0.912 l -1.031 5.477 l 4.89 -2.673 C 44.67 59.731 44.835 59.69 45 59.69 z" style="stroke: none; stroke-width: 1; stroke-dasharray: none; stroke-linecap: butt; stroke-linejoin: miter; stroke-miterlimit: 10; fill: rgb(0,0,0); fill-rule: nonzero; opacity: 1;" transform=" matrix(1 0 0 1 0 0) " stroke-linecap="round"/>
</g>
</svg>