<svg xmlns="http://www.w3.org/2000/svg" xmlns:xlink="http://www.w3.org/1999/xlink" version="1.1" width="256" height="256" viewBox="0 0 256 256" xml:space="preserve">
<g style="stroke: none; stroke-width: 0; stroke-dasharray: none; stroke-linecap: butt; stroke-linejoin: miter; stroke-miterlimit: 10; fill: none; fill-rule: nonzero; opacity: 1;" transform="translate(1.4065934065934016 1.4065934065934016) scale(2.81 2.81)">
	<path d="M 6.316 75.013 c 0.027 2.411 0.901 4.213 2.337 5.261 c 0.184 0.134 0.385 0.246 0.587 0.355 l -0.004 0.012 l 0.118 0.057 c 0.041 0.021 0.083 0.04 0.124 0.06 l 17.797 8.561 l 0.738 -0.428 c -0.423 -0.898 -0.671 -1.965 -0.685 -3.205 l -0.231 -20.726 l -0.209 -18.781 c -0.039 -3.497 1.713 -7.447 4.406 -10.581 L 9.962 25.318 c -2.508 3.068 -4.124 6.833 -4.086 10.187 l 0.209 18.781 L 6.316 75.013 z" style="stroke: none; stroke-width: 1; stroke-dasharray: none; stroke-linecap: butt; stroke-linejoin: miter; stroke-miterlimit: 10; fill: rgb(27,93,122); fill-rule: nonzero; opacity: 1;" transform=" matrix(1 0 0 1 0 0) " stroke-linecap="round"/>
	<path d="M 62.715 0.538 L 62.71 0.546 c -1.846 -0.86 -4.335 -0.735 -7.07 0.595 L 15.923 20.457 c -2.24 1.089 -4.295 2.823 -5.961 4.861 c 0.9 7.946 6.189 11.544 18.007 8.677 c 1.606 -1.869 6.871 -1.846 8.967 -2.865 l 39.717 -19.316 c 1.36 -0.662 2.659 -1.021 3.85 -1.115 l 0.11 -1.536 L 62.715 0.538 z" style="stroke: none; stroke-width: 1; stroke-dasharray: none; stroke-linecap: butt; stroke-linejoin: miter; stroke-miterlimit: 10; fill: rgb(31,104,137); fill-rule: nonzero; opacity: 1;" transform=" matrix(1 0 0 1 0 0) " stroke-linecap="round"/>
	<path d="M 73.938 9.789 L 34.119 28.713 c -5.626 2.674 -10.186 9.402 -10.186 15.028 V 62.67 v 2.006 V 83.56 c 0 5.626 4.561 8.019 10.186 5.345 l 13.736 -6.528 l 26.083 -12.396 c 5.626 -2.674 10.186 -9.402 10.186 -15.028 V 15.134 C 84.125 9.508 79.564 7.115 73.938 9.789 z" style="stroke: none; stroke-width: 1; stroke-dasharray: none; stroke-linecap: butt; stroke-linejoin: miter; stroke-miterlimit: 10; fill: rgb(33,117,155); fill-rule: nonzero; opacity: 1;" transform=" matrix(1 0 0 1 0 0) " stroke-linecap="round"/>
	<path d="M 54.029 66.067 c -9.266 4.404 -16.79 0.595 -16.72 -8.774 c 0.07 -9.368 7.106 -20.097 16.72 -24.666 c 9.615 -4.569 16.72 -0.422 16.72 8.774 S 63.295 61.663 54.029 66.067 z M 58.975 61.138 l -4.737 -10.498 l -4.459 15.147 C 53.054 64.998 55.283 64.147 58.975 61.138 L 58.975 61.138 z M 47.411 65.938 l -7.106 -16.06 c -0.976 2.554 -1.184 4.395 -1.324 6.62 C 39.051 62.178 42.255 65.88 47.411 65.938 z M 69.008 42.228 c 0.069 -3.725 -1.602 -5.857 -1.742 -6.208 c 0.14 2.79 -0.279 4.452 -0.766 6.286 l -4.877 16.321 c 6.131 -6.607 7.314 -12.673 7.454 -16.431 L 69.008 42.228 L 69.008 42.228 z M 53.542 48.952 l -2.369 -5.353 l -1.742 0.689 c -0.696 -0.157 -0.279 -1.121 0.209 -1.353 c 3.135 -1.281 4.876 -2.108 8.012 -3.808 c 0.767 -0.364 0.975 0.651 0.069 1.221 l -1.672 0.934 l 5.433 13.441 l 2.577 -10.003 c 0.14 -3.898 -0.906 -3.819 -2.299 -5.943 c -1.115 -1.63 0.07 -4.283 2.23 -5.379 c -1.743 -0.844 -5.295 -1.246 -9.963 0.903 c -4.668 2.149 -9.614 6.868 -12.54 12.718 l 5.156 -2.589 c 0.627 -0.019 0.348 1.019 0 1.254 l -1.811 1 l 5.434 13.719 L 53.542 48.952 L 53.542 48.952 z" style="stroke: none; stroke-width: 1; stroke-dasharray: none; stroke-linecap: butt; stroke-linejoin: miter; stroke-miterlimit: 10; fill: rgb(255,255,255); fill-rule: nonzero; opacity: 1;" transform=" matrix(1 0 0 1 0 0) " stroke-linecap="round"/>
</g>
</svg>