<svg xmlns="http://www.w3.org/2000/svg" xmlns:xlink="http://www.w3.org/1999/xlink" version="1.1" width="256" height="256" viewBox="0 0 256 256" xml:space="preserve">
<g style="stroke: none; stroke-width: 0; stroke-dasharray: none; stroke-linecap: butt; stroke-linejoin: miter; stroke-miterlimit: 10; fill: none; fill-rule: nonzero; opacity: 1;" transform="translate(1.4065934065934016 1.4065934065934016) scale(2.81 2.81)">
	<path d="M 90 90 H 45 C 20.147 90 0 69.853 0 45 v 0 C 0 20.147 20.147 0 45 0 h 0 c 24.853 0 45 20.147 45 45 V 90 z" style="stroke: none; stroke-width: 1; stroke-dasharray: none; stroke-linecap: butt; stroke-linejoin: miter; stroke-miterlimit: 10; fill: rgb(7,122,174); fill-rule: nonzero; opacity: 1;" transform=" matrix(1 0 0 1 0 0) " stroke-linecap="round"/>
	<path d="M 45 67.5 c -12.469 0 -22.594 -9.938 -22.5 -22.5 S 32.063 22.5 45 22.5 c 12.938 0 22.5 10.125 22.5 22.5 S 57.469 67.5 45 67.5 z M 51.656 64.031 l -6.375 -17.156 l -6 17.531 C 43.688 65.438 46.688 65.718 51.656 64.031 L 51.656 64.031 z M 36.094 63.094 l -9.562 -26.156 c -1.313 2.812 -1.593 5.156 -1.782 8.062 C 24.845 52.687 29.157 59.718 36.094 63.094 z M 65.157 45 c 0.093 -4.968 -2.156 -8.906 -2.344 -9.468 c 0.188 3.844 -0.375 5.812 -1.031 7.969 l -6.563 18.843 C 63.469 57.375 65.062 49.968 65.25 45 H 65.157 L 65.157 45 z M 44.345 44.156 l -3.188 -8.719 l -2.344 -0.187 c -0.937 -0.657 -0.375 -1.687 0.281 -1.687 c 4.219 0.281 6.562 0.281 10.781 0 c 1.032 0 1.312 1.5 0.093 1.687 l -2.25 0.187 L 55.03 57 l 3.468 -11.812 c 0.188 -5.156 -1.219 -5.718 -3.094 -9.468 c -1.5 -2.907 0.094 -5.719 3.001 -5.812 c -2.345 -2.25 -7.125 -5.062 -13.407 -5.156 s -12.937 3.094 -16.875 9.094 l 6.938 -0.187 c 0.844 0.375 0.468 1.593 0 1.687 l -2.437 0.187 l 7.312 21.937 L 44.345 44.156 L 44.345 44.156 z" style="stroke: none; stroke-width: 1; stroke-dasharray: none; stroke-linecap: butt; stroke-linejoin: miter; stroke-miterlimit: 10; fill: rgb(255,255,255); fill-rule: nonzero; opacity: 1;" transform=" matrix(1 0 0 1 0 0) " stroke-linecap="round"/>
</g>
</svg>